<?xml version="1.0" encoding="UTF-8" standalone="no"?>
<svg
   xmlns:dc="http://purl.org/dc/elements/1.1/"
   xmlns:cc="http://creativecommons.org/ns#"
   xmlns:rdf="http://www.w3.org/1999/02/22-rdf-syntax-ns#"
   xmlns:svg="http://www.w3.org/2000/svg"
   xmlns="http://www.w3.org/2000/svg"
   xmlns:sodipodi="http://sodipodi.sourceforge.net/DTD/sodipodi-0.dtd"
   xmlns:inkscape="http://www.inkscape.org/namespaces/inkscape"
   inkscape:version="1.0 (4035a4fb49, 2020-05-01)"
   sodipodi:docname="github.svg"
   id="svg15"
   version="1.1"
   height="100"
   width="100"
   viewBox="0 0 100 100">
  <metadata
     id="metadata21">
    <rdf:RDF>
      <cc:Work
         rdf:about="">
        <dc:format>image/svg+xml</dc:format>
        <dc:type
           rdf:resource="http://purl.org/dc/dcmitype/StillImage" />
        <dc:title></dc:title>
      </cc:Work>
    </rdf:RDF>
  </metadata>
  <defs
     id="defs19" />
  <sodipodi:namedview
     inkscape:current-layer="svg15"
     inkscape:window-maximized="0"
     inkscape:window-y="131"
     inkscape:window-x="64"
     inkscape:cy="19.717248"
     inkscape:cx="43.227503"
     inkscape:zoom="8.0776357"
     showgrid="false"
     id="namedview17"
     inkscape:window-height="967"
     inkscape:window-width="1747"
     inkscape:pageshadow="2"
     inkscape:pageopacity="0"
     guidetolerance="10"
     gridtolerance="10"
     objecttolerance="10"
     borderopacity="1"
     bordercolor="#666666"
     pagecolor="#ffffff" />
  <linearGradient
     gradientUnits="userSpaceOnUse"
     y2="23.507999"
     y1="23.507999"
     x2="44"
     x1="4"
     id="rL2wppHyxHVbobwndsT6Ca">
    <stop
       id="stop2"
       stop-color="#4c4c4c"
       offset="0" />
    <stop
       id="stop4"
       stop-color="#343434"
       offset="1" />
  </linearGradient>
  <g
     transform="matrix(2.5,0,0,2.5,-10,-10)"
     id="g27">
    <path
       style="fill:url(#rL2wppHyxHVbobwndsT6Ca)"
       fill="url(#rL2wppHyxHVbobwndsT6Ca)"
       d="M 24,4 C 12.954,4 4,12.954 4,24 4,32.887 9.801,40.411 17.82,43.016 H 30.18 C 38.199,40.411 44,32.887 44,24 44,12.954 35.046,4 24,4 Z"
       id="path7" />
    <path
       d="M 30.01,41.996 30,36.198 c 0,-0.939 -0.22,-1.856 -0.642,-2.687 5.641,-1.133 8.386,-4.468 8.386,-10.177 0,-2.255 -0.665,-4.246 -1.976,-5.92 0.1,-0.317 0.174,-0.645 0.22,-0.981 0.188,-1.369 -0.023,-2.264 -0.193,-2.984 L 35.768,13.333 C 35.582,12.537 35.359,11.969 35.35,11.945 l -0.111,-0.282 -0.111,-0.282 -0.302,-0.032 -0.303,-0.032 c 0,0 -0.199,-0.021 -0.501,-0.021 -0.419,0 -1.04,0.042 -1.627,0.241 l -0.196,0.066 c -0.74,0.249 -1.439,0.485 -2.417,1.069 -0.286,0.171 -0.599,0.366 -0.934,0.584 C 27.334,12.881 25.705,12.69 24,12.69 c -1.722,0 -3.365,0.192 -4.889,0.571 -0.339,-0.22 -0.654,-0.417 -0.942,-0.589 -0.978,-0.584 -1.677,-0.819 -2.417,-1.069 l -0.196,-0.066 c -0.585,-0.199 -1.207,-0.241 -1.626,-0.241 -0.302,0 -0.501,0.021 -0.501,0.021 l -0.302,0.032 -0.3,0.031 -0.112,0.281 -0.113,0.283 c -0.01,0.026 -0.233,0.594 -0.419,1.391 l -0.027,0.115 c -0.17,0.719 -0.381,1.615 -0.193,2.983 0.048,0.346 0.125,0.685 0.23,1.011 -1.285,1.666 -1.936,3.646 -1.936,5.89 0,5.695 2.748,9.028 8.397,10.17 -0.194,0.388 -0.345,0.798 -0.452,1.224 -0.197,0.067 -0.378,0.112 -0.538,0.137 -0.238,0.036 -0.487,0.054 -0.739,0.054 -0.686,0 -1.225,-0.134 -1.435,-0.259 -0.313,-0.186 -0.872,-0.727 -1.414,-1.518 -0.463,-0.675 -1.185,-1.558 -1.992,-1.927 -0.698,-0.319 -1.437,-0.502 -2.029,-0.502 -0.138,0 -0.265,0.01 -0.376,0.028 -0.517,0.082 -0.949,0.366 -1.184,0.78 -0.203,0.357 -0.235,0.773 -0.088,1.141 0.219,0.548 0.851,0.985 1.343,1.255 0.242,0.133 0.765,0.619 1.07,1.109 0.229,0.368 0.335,0.63 0.482,0.992 0.087,0.215 0.183,0.449 0.313,0.732 0.47,1.022 1.937,1.924 2.103,2.023 0.806,0.483 2.161,0.638 3.157,0.683 l 0.123,0.003 c 0,0 10e-4,0 10e-4,0 0.24,0 0.57,-0.023 1.004,-0.071 v 2.613 c 0.002,0.529 -0.537,0.649 -1.25,0.638 L 17.3,42.823 C 19.395,43.572 21.645,44 24,44 c 2.355,0 4.605,-0.428 6.703,-1.176 l 0.703,-0.262 c -0.711,-0.024 -1.39,-0.14 -1.396,-0.566 z"
       opacity="0.05"
       id="path9" />
    <path
       d="M 30.781,42.797 C 30.375,42.844 29.5,42.688 29.5,42.002 v -5.804 c 0,-1.094 -0.328,-2.151 -0.936,-3.052 5.915,-0.957 8.679,-4.093 8.679,-9.812 0,-2.237 -0.686,-4.194 -2.039,-5.822 0.137,-0.365 0.233,-0.75 0.288,-1.147 0.175,-1.276 -0.016,-2.086 -0.184,-2.801 L 35.281,13.448 C 35.103,12.687 34.893,12.151 34.884,12.129 L 34.773,11.847 34.47,11.815 c 0,0 -0.178,-0.019 -0.449,-0.019 -0.381,0 -0.944,0.037 -1.466,0.215 l -0.196,0.066 c -0.714,0.241 -1.389,0.468 -2.321,1.024 -0.332,0.198 -0.702,0.431 -1.101,0.694 C 27.404,13.394 25.745,13.19 24,13.19 c -1.762,0 -3.435,0.205 -4.979,0.61 -0.403,-0.265 -0.775,-0.499 -1.109,-0.699 -0.932,-0.556 -1.607,-0.784 -2.321,-1.024 l -0.196,-0.066 c -0.521,-0.177 -1.085,-0.215 -1.466,-0.215 -0.271,0 -0.449,0.019 -0.449,0.019 l -0.302,0.032 -0.113,0.283 c -0.009,0.022 -0.219,0.558 -0.397,1.319 l -0.027,0.116 c -0.169,0.715 -0.36,1.524 -0.184,2.8 0.056,0.407 0.156,0.801 0.298,1.174 -1.327,1.62 -1.999,3.567 -1.999,5.795 0,5.703 2.766,8.838 8.686,9.806 -0.395,0.59 -0.671,1.255 -0.813,1.964 -0.33,0.13 -0.629,0.216 -0.891,0.256 -0.263,0.04 -0.537,0.06 -0.814,0.06 -0.69,0 -1.353,-0.129 -1.69,-0.329 -0.44,-0.261 -1.057,-0.914 -1.572,-1.665 -0.35,-0.51 -1.047,-1.417 -1.788,-1.755 -0.635,-0.29 -1.298,-0.457 -1.821,-0.457 -0.11,0 -0.21,0.008 -0.298,0.022 -0.366,0.058 -0.668,0.252 -0.828,0.534 -0.128,0.224 -0.149,0.483 -0.059,0.708 0.179,0.448 0.842,0.85 1.119,1.002 0.335,0.184 0.919,0.744 1.254,1.284 0.251,0.404 0.37,0.697 0.521,1.067 0.085,0.209 0.178,0.437 0.304,0.712 0.331,0.719 1.353,1.472 1.905,1.803 0.754,0.452 2.154,0.578 2.922,0.612 l 0.111,0.002 c 0.299,0 0.8,-0.045 1.495,-0.135 v 3.177 c 0,0.779 -0.991,0.81 -1.234,0.81 -0.031,0 0.503,0.184 0.503,0.184 C 19.731,43.64 21.822,44 24,44 c 2.178,0 4.269,-0.36 6.231,-1.003 0,0 0.581,-0.204 0.55,-0.2 z"
       opacity="0.07"
       id="path11" />
    <path
       fill="#ffffff"
       d="m 36.744,23.334 c 0,-2.31 -0.782,-4.226 -2.117,-5.728 0.145,-0.325 0.296,-0.761 0.371,-1.309 0.172,-1.25 -0.031,-2 -0.203,-2.734 -0.172,-0.734 -0.375,-1.25 -0.375,-1.25 0,0 -0.922,-0.094 -1.703,0.172 -0.781,0.266 -1.453,0.469 -2.422,1.047 -0.453,0.27 -0.909,0.566 -1.27,0.806 C 27.482,13.91 25.785,13.69 24,13.69 c -1.801,0 -3.513,0.221 -5.067,0.652 -0.362,-0.241 -0.821,-0.539 -1.277,-0.811 -0.969,-0.578 -1.641,-0.781 -2.422,-1.047 -0.781,-0.266 -1.703,-0.172 -1.703,-0.172 0,0 -0.203,0.516 -0.375,1.25 -0.172,0.734 -0.375,1.484 -0.203,2.734 0.077,0.562 0.233,1.006 0.382,1.333 -1.31,1.493 -2.078,3.397 -2.078,5.704 0,5.983 3.232,8.714 9.121,9.435 -0.687,0.726 -1.148,1.656 -1.303,2.691 -0.387,0.17 -0.833,0.33 -1.262,0.394 -1.104,0.167 -2.271,0 -2.833,-0.333 -0.562,-0.333 -1.229,-1.083 -1.729,-1.813 -0.422,-0.616 -1.031,-1.331 -1.583,-1.583 -0.729,-0.333 -1.438,-0.458 -1.833,-0.396 -0.396,0.063 -0.583,0.354 -0.5,0.563 0.083,0.208 0.479,0.521 0.896,0.75 0.417,0.229 1.063,0.854 1.438,1.458 0.418,0.674 0.5,1.063 0.854,1.833 0.249,0.542 1.101,1.219 1.708,1.583 0.521,0.313 1.562,0.491 2.688,0.542 0.389,0.018 1.308,-0.096 2.083,-0.206 v 3.75 c 0,0.639 -0.585,1.125 -1.191,1.013 C 19.756,43.668 21.833,44 24,44 26.166,44 28.243,43.668 30.19,43.016 29.585,43.127 29,42.641 29,42.002 v -5.804 c 0,-1.329 -0.527,-2.53 -1.373,-3.425 5.846,-0.702 9.117,-3.368 9.117,-9.439 z m -25.505,9.393 c -0.154,-0.079 -0.237,-0.225 -0.185,-0.328 0.052,-0.103 0.22,-0.122 0.374,-0.043 0.154,0.079 0.237,0.225 0.185,0.328 -0.052,0.103 -0.22,0.122 -0.374,0.043 z m 1.212,0.755 c -0.081,0.088 -0.255,0.06 -0.389,-0.062 -0.134,-0.122 -0.177,-0.293 -0.096,-0.381 0.081,-0.088 0.255,-0.06 0.389,0.062 0.134,0.122 0.177,0.293 0.096,0.381 z m 0.754,1.25 c -0.102,0.072 -0.275,0.005 -0.386,-0.15 -0.111,-0.155 -0.118,-0.34 -0.016,-0.412 0.102,-0.072 0.275,-0.005 0.386,0.15 0.11,0.155 0.118,0.34 0.016,0.412 z m 1.083,0.941 c -0.069,0.112 -0.265,0.117 -0.437,0.012 -0.172,-0.105 -0.256,-0.281 -0.187,-0.393 0.069,-0.112 0.265,-0.117 0.437,-0.012 0.172,0.105 0.256,0.281 0.187,0.393 z m 1.024,0.921 c -0.213,-0.026 -0.371,-0.159 -0.353,-0.297 0.017,-0.138 0.204,-0.228 0.416,-0.202 0.213,0.026 0.371,0.159 0.353,0.297 -0.017,0.137 -0.203,0.228 -0.416,0.202 z m 1.651,0.239 c -0.227,-0.013 -0.404,-0.143 -0.395,-0.289 0.009,-0.146 0.2,-0.255 0.427,-0.242 0.227,0.013 0.404,0.143 0.395,0.289 -0.009,0.147 -0.2,0.255 -0.427,0.242 z m 1.558,-0.156 c -0.242,0 -0.438,-0.126 -0.438,-0.281 0,-0.155 0.196,-0.281 0.438,-0.281 0.242,0 0.438,0.126 0.438,0.281 0,0.155 -0.197,0.281 -0.438,0.281 z"
       id="path13" />
  </g>
</svg>
