<?xml version="1.0" encoding="UTF-8" standalone="no"?>
<svg
   xmlns:dc="http://purl.org/dc/elements/1.1/"
   xmlns:cc="http://creativecommons.org/ns#"
   xmlns:rdf="http://www.w3.org/1999/02/22-rdf-syntax-ns#"
   xmlns:svg="http://www.w3.org/2000/svg"
   xmlns="http://www.w3.org/2000/svg"
   xmlns:sodipodi="http://sodipodi.sourceforge.net/DTD/sodipodi-0.dtd"
   xmlns:inkscape="http://www.inkscape.org/namespaces/inkscape"
   inkscape:version="1.0 (4035a4fb49, 2020-05-01)"
   height="100"
   width="103.035"
   sodipodi:docname="kcsp.svg"
   xml:space="preserve"
   viewBox="0 0 103.035 99.999998"
   y="0px"
   x="0px"
   id="Layer_1"
   version="1.1"><metadata
   id="metadata131"><rdf:RDF><cc:Work
       rdf:about=""><dc:format>image/svg+xml</dc:format><dc:type
         rdf:resource="http://purl.org/dc/dcmitype/StillImage" /><dc:title></dc:title></cc:Work></rdf:RDF></metadata><defs
   id="defs129" /><sodipodi:namedview
   inkscape:current-layer="Layer_1"
   inkscape:window-maximized="0"
   inkscape:window-y="127"
   inkscape:window-x="221"
   inkscape:cy="100.18718"
   inkscape:cx="101.6876"
   inkscape:zoom="64"
   units="px"
   showgrid="false"
   id="namedview127"
   inkscape:window-height="982"
   inkscape:window-width="1576"
   inkscape:pageshadow="2"
   inkscape:pageopacity="0"
   guidetolerance="10"
   gridtolerance="10"
   objecttolerance="10"
   borderopacity="1"
   bordercolor="#666666"
   pagecolor="#ffffff" />
<style
   id="style2"
   type="text/css">
	.st0{fill:none;}
	.st1{fill:#3E76F8;}
	.st2{fill:#427AF4;}
	.st3{fill:#FFFFFF;}
</style>
<g
   transform="matrix(0.24124,0,0,0.24124,-0.45702814,-2.0444808)"
   id="g124">
	<polygon
   id="polygon4"
   points="410.9,269.8 302.5,404.8 128.4,404.8 302.5,404.8 410.9,269.8 372.2,101.6 215.4,26.7 372.2,101.6 "
   class="st0" />
	<path
   id="path6"
   d="M 428.3,260.7 391.6,101.3 C 389.7,93.1 383.9,85.8 376.2,82.2 L 227.7,11.3 c -4.3,-2 -9,-3 -13.8,-2.8 -3.8,0.2 -7.5,1.1 -10.9,2.8 L 54.5,82.3 C 46.8,86 41,93.2 39.1,101.4 L 2.6,260.8 c -1.7,7.3 -0.3,15.3 3.9,21.6 0.5,0.8 1,1.5 1.6,2.2 l 102.8,127.8 c 5.3,6.6 13.7,10.6 22.2,10.6 h 164.8 c 8.5,0 16.9,-4 22.2,-10.6 L 422.9,284.6 c 5.2,-6.6 7.3,-15.7 5.4,-23.9 z m -17.4,9.1 -108.4,135 h -174 v 0 0 L 19.9,269.9 49.7,140.3 58.6,101.6 215.4,26.7 v 0 0 l 156.8,74.9 z"
   class="st1" />
	<path
   id="path8"
   d="m 218.5,160.1 c -0.3,-0.6 -0.9,-1.2 -1.6,-1.5 -0.5,-0.3 -1.1,-0.4 -1.6,-0.3 -1.2,0 -2.3,0.7 -2.9,1.8 v 0 l -10,18.1 c 6.9,2.4 14.6,2.9 22.3,1.1 1.4,-0.3 2.7,-0.7 4,-1.1 z"
   class="st2" />
	<path
   id="path10"
   d="m 221.6,119.5 c 0,0.7 0.3,1.4 0.8,2 1.2,1.5 3.3,1.7 4.8,0.6 h 0.1 l 16.9,-12 c -6.4,-6.2 -14.7,-10.3 -23.7,-11.4 z"
   class="st2" />
	<path
   id="path12"
   d="m 190.5,233.5 c -0.3,-0.4 -0.7,-0.8 -1.2,-1 -0.5,-0.3 -1.1,-0.4 -1.9,-0.4 -0.7,0 -1.3,0.1 -1.8,0.4 -0.5,0.3 -0.9,0.6 -1.3,1 -0.3,0.4 -0.6,0.9 -0.8,1.4 -0.2,0.5 -0.3,1.1 -0.4,1.7 h 8.4 c 0,-0.6 -0.1,-1.1 -0.3,-1.6 -0.1,-0.6 -0.4,-1.1 -0.7,-1.5 z"
   class="st2" />
	<path
   id="path14"
   d="m 233.4,149.9 c -0.3,0 -0.5,-0.1 -0.8,-0.1 -0.4,0 -0.9,0.1 -1.3,0.3 -1.7,0.8 -2.4,2.8 -1.7,4.5 v 0 l 8,19.3 c 7.7,-4.9 13.5,-12.2 16.5,-20.7 z"
   class="st2" />
	<path
   id="path16"
   d="m 301.8,233.5 c -0.3,-0.4 -0.7,-0.8 -1.2,-1 -0.5,-0.3 -1.1,-0.4 -1.9,-0.4 -0.7,0 -1.3,0.1 -1.8,0.4 -0.5,0.3 -0.9,0.6 -1.3,1 -0.4,0.4 -0.6,0.9 -0.8,1.4 -0.2,0.5 -0.3,1.1 -0.4,1.7 h 8.4 c 0,-0.6 -0.1,-1.1 -0.3,-1.6 -0.2,-0.5 -0.4,-1.1 -0.7,-1.5 z"
   class="st2" />
	<path
   id="path18"
   d="M 366.9,105.8 215.4,33.5 63.9,105.9 55.7,141.7 26.5,268.4 131.3,398.7 H 299.5 L 404.3,268.3 Z m -217.6,44.7 c 0,0 0,0 0,0 0,0 0,0 0,0 0.4,-0.1 0.8,-0.2 1.1,-0.3 1.4,-0.3 2.5,-0.2 3.8,-0.3 2.8,-0.3 5.1,-0.5 7.1,-1.2 0.6,-0.3 1.3,-1.2 1.7,-1.7 l 1.7,-0.5 c -1.9,-12.8 1.3,-25.4 8.1,-35.7 l -1.3,-1.1 c -0.1,-0.5 -0.2,-1.6 -0.8,-2.3 -1.6,-1.5 -3.5,-2.7 -5.9,-4.1 -1.1,-0.7 -2.2,-1.1 -3.3,-1.9 -0.2,-0.2 -0.6,-0.4 -0.8,-0.7 0,0 0,0 -0.1,0 -1.9,-1.5 -2.3,-4.1 -1,-5.8 0.8,-1 1.9,-1.4 3.1,-1.4 0.9,0 1.9,0.4 2.8,1 0.3,0.2 0.6,0.5 0.9,0.7 1.1,0.9 1.7,1.8 2.6,2.8 1.9,2 3.6,3.6 5.3,4.8 0.9,0.5 1.6,0.3 2.3,0.2 0.2,0.2 1,0.7 1.4,1 6.7,-7.1 15.6,-12.4 25.8,-14.8 2.4,-0.5 4.8,-0.9 7.1,-1.1 l 0.1,-1.7 c 0.5,-0.5 1.1,-1.2 1.3,-2 0.2,-2.1 -0.1,-4.4 -0.4,-7.2 -0.2,-1.3 -0.5,-2.4 -0.5,-3.8 0,-0.3 0,-0.7 0,-1 0,0 0,-0.1 0,-0.1 0,-2.4 1.8,-4.4 4,-4.4 2.2,0 4,2 4,4.4 0,0.3 0,0.8 0,1.1 -0.1,1.4 -0.4,2.5 -0.5,3.8 -0.3,2.8 -0.6,5 -0.4,7.2 0.2,1.1 0.8,1.5 1.3,2 0,0.3 0.1,1.2 0.1,1.8 12.6,1.1 24.2,6.9 32.8,15.8 l 1.5,-1.1 c 0.5,0 1.6,0.2 2.4,-0.3 1.8,-1.2 3.4,-2.8 5.3,-4.8 0.9,-0.9 1.5,-1.8 2.6,-2.8 0.2,-0.2 0.6,-0.5 0.9,-0.7 1.9,-1.5 4.5,-1.4 5.9,0.4 1.4,1.7 0.9,4.3 -1,5.8 -0.3,0.2 -0.6,0.5 -0.9,0.7 -1.1,0.8 -2.2,1.3 -3.3,1.9 -2.4,1.5 -4.3,2.7 -5.9,4.1 -0.7,0.8 -0.7,1.5 -0.7,2.2 -0.2,0.2 -1,0.9 -1.4,1.3 3.4,5.1 6,10.8 7.4,17.1 1.4,6.2 1.7,12.5 0.8,18.5 l 1.6,0.5 c 0.3,0.4 0.9,1.4 1.7,1.7 2,0.6 4.3,0.9 7.1,1.2 1.3,0.1 2.4,0 3.8,0.3 0.3,0.1 0.8,0.2 1.1,0.3 2.3,0.6 3.8,2.7 3.3,4.8 -0.5,2.1 -2.8,3.4 -5.1,2.9 0,0 0,0 -0.1,0 0,0 -0.1,0 -0.1,0 -0.3,-0.1 -0.7,-0.1 -1,-0.2 -1.4,-0.4 -2.3,-0.9 -3.5,-1.4 -2.6,-0.9 -4.8,-1.7 -6.9,-2 -1.1,-0.1 -1.6,0.4 -2.2,0.8 -0.3,-0.1 -1.2,-0.2 -1.7,-0.3 -3.8,11.9 -11.8,22.2 -22.8,28.7 0.2,0.5 0.5,1.4 0.7,1.6 -0.2,0.7 -0.6,1.3 -0.3,2.3 0.8,2 2,3.9 3.5,6.3 0.7,1.1 1.5,1.9 2.1,3.1 0.2,0.3 0.4,0.8 0.5,1.1 1,2.2 0.3,4.7 -1.7,5.6 -2,0.9 -4.4,-0.1 -5.5,-2.2 -0.2,-0.3 -0.4,-0.7 -0.5,-1 -0.6,-1.3 -0.8,-2.4 -1.1,-3.6 -0.9,-2.6 -1.6,-4.8 -2.7,-6.6 -0.6,-0.9 -1.3,-1 -2,-1.2 -0.1,-0.2 -0.6,-1.1 -0.8,-1.5 -2.2,0.8 -4.4,1.5 -6.8,2 -10.3,2.3 -20.5,1.4 -29.7,-2.1 l -0.9,1.6 c -0.7,0.2 -1.3,0.4 -1.7,0.8 -1.4,1.7 -2,4.5 -3.1,7.1 -0.4,1.2 -0.6,2.3 -1.1,3.6 -0.1,0.3 -0.3,0.7 -0.5,1 0,0 0,0 0,0 0,0 0,0 0,0 -1.1,2.2 -3.5,3.2 -5.5,2.2 -2,-0.9 -2.7,-3.4 -1.7,-5.6 0.2,-0.3 0.3,-0.8 0.5,-1.1 0.7,-1.2 1.4,-2.1 2.1,-3.2 1.5,-2.3 2.8,-4.4 3.6,-6.4 0.2,-0.7 -0.1,-1.6 -0.4,-2.2 l 0.7,-1.7 C 178.7,177.3 170.4,167.3 166.4,155 l -1.7,0.3 c -0.5,-0.3 -1.4,-0.9 -2.3,-0.8 -2.1,0.3 -4.3,1.1 -6.9,2 -1.2,0.5 -2.2,1 -3.5,1.4 -0.3,0.1 -0.7,0.2 -1,0.2 0,0 0,0 -0.1,0 0,0 0,0 -0.1,0 -2.3,0.5 -4.6,-0.8 -5.1,-2.9 -0.3,-1.9 1.2,-4.1 3.6,-4.7 z m 173.3,92.1 c -0.6,-0.4 -1.6,-0.8 -2.9,-1.3 -1,-0.4 -1.9,-0.8 -2.7,-1.2 -0.8,-0.4 -1.5,-0.9 -2.1,-1.5 -0.6,-0.6 -1,-1.3 -1.3,-2.1 -0.3,-0.8 -0.5,-1.7 -0.5,-2.9 0,-2.2 0.8,-3.9 2.4,-5.2 1.6,-1.3 3.7,-1.9 6.5,-1.9 1.4,0 2.7,0.1 3.9,0.4 1.3,0.3 2.2,0.5 3,0.8 l -1.1,5.1 c -0.7,-0.3 -1.5,-0.5 -2.4,-0.7 -0.9,-0.2 -1.8,-0.3 -2.9,-0.3 -2,0 -3,0.6 -3,1.7 0,0.3 0,0.5 0.1,0.7 0.1,0.2 0.3,0.4 0.5,0.6 0.3,0.2 0.6,0.4 1,0.6 0.4,0.2 1,0.5 1.7,0.7 1.4,0.5 2.5,1.1 3.5,1.6 0.9,0.5 1.6,1.1 2.2,1.7 0.5,0.6 0.9,1.3 1.1,2 0.2,0.7 0.3,1.6 0.3,2.6 0,2.3 -0.8,4 -2.5,5.2 -1.7,1.2 -4,1.8 -7.1,1.8 -2,0 -3.7,-0.2 -5,-0.5 -1.3,-0.4 -2.2,-0.6 -2.8,-0.9 l 1.1,-5.3 c 1.1,0.4 2.2,0.8 3.3,1 1.1,0.3 2.3,0.4 3.4,0.4 1.2,0 2,-0.1 2.5,-0.4 0.5,-0.2 0.7,-0.7 0.7,-1.4 0,-0.4 -0.3,-0.9 -0.9,-1.3 z m -26.4,1.7 c 1.1,0.8 2.5,1.2 4.4,1.2 1.2,0 2.3,-0.1 3.4,-0.3 1.1,-0.2 2,-0.5 2.8,-0.8 l 0.9,5.3 c -0.3,0.2 -0.8,0.4 -1.4,0.5 -0.6,0.1 -1.2,0.3 -1.9,0.5 -0.7,0.1 -1.4,0.2 -2.2,0.3 -0.8,0.1 -1.6,0.1 -2.4,0.1 -2,0 -3.8,-0.3 -5.3,-0.9 -1.5,-0.6 -2.7,-1.5 -3.7,-2.5 -1,-1.1 -1.7,-2.3 -2.2,-3.8 -0.5,-1.5 -0.7,-3.1 -0.7,-4.8 0,-2.1 0.3,-3.9 0.9,-5.4 0.6,-1.5 1.4,-2.8 2.4,-3.9 1,-1 2.1,-1.8 3.4,-2.3 1.3,-0.5 2.6,-0.8 4,-0.8 3.2,0 5.7,1 7.6,3 1.9,2 2.8,5 2.8,8.9 0,0.4 0,0.8 0,1.3 0,0.5 -0.1,0.9 -0.1,1.2 h -14.4 c 0,1.3 0.6,2.4 1.7,3.2 z m -11.7,-17 v 5.5 h -7.6 v 8.2 c 0,1.4 0.2,2.5 0.7,3.3 0.5,0.8 1.4,1.2 2.8,1.2 0.7,0 1.4,-0.1 2.1,-0.2 0.7,-0.1 1.4,-0.3 2,-0.6 l 0.9,5.1 c -0.8,0.3 -1.6,0.6 -2.6,0.8 -0.9,0.2 -2.1,0.4 -3.5,0.4 -1.7,0 -3.2,-0.2 -4.3,-0.7 -1.1,-0.5 -2.1,-1.2 -2.7,-2 -0.7,-0.9 -1.2,-1.9 -1.4,-3.2 -0.3,-1.2 -0.4,-2.6 -0.4,-4.1 v -19.5 l 6.4,-1.1 v 6.8 h 7.6 z m -31.4,17 c 1.1,0.8 2.5,1.2 4.4,1.2 1.2,0 2.3,-0.1 3.4,-0.3 1.1,-0.2 2,-0.5 2.8,-0.8 l 0.9,5.3 c -0.3,0.2 -0.8,0.4 -1.4,0.5 -0.6,0.2 -1.2,0.3 -1.9,0.5 -0.7,0.2 -1.4,0.2 -2.2,0.3 -0.8,0.1 -1.6,0.1 -2.4,0.1 -2,0 -3.8,-0.3 -5.3,-0.9 -1.5,-0.6 -2.7,-1.5 -3.7,-2.5 -1,-1.1 -1.7,-2.3 -2.2,-3.8 -0.5,-1.5 -0.7,-3.1 -0.7,-4.8 0,-2.1 0.3,-3.9 0.9,-5.4 0.6,-1.5 1.4,-2.8 2.4,-3.9 1,-1 2.1,-1.8 3.4,-2.3 1.3,-0.5 2.6,-0.8 4,-0.8 3.2,0 5.7,1 7.6,3 1.9,2 2.8,5 2.8,8.9 0,0.4 0,0.8 0,1.3 0,0.5 -0.1,0.9 -0.1,1.2 h -14.4 c 0,1.3 0.6,2.4 1.7,3.2 z m -20.3,-10.6 c -0.5,-0.9 -1.6,-1.3 -3,-1.3 -0.5,0 -0.9,0 -1.5,0.1 -0.5,0 -1,0.1 -1.4,0.2 v 17.9 h -6.4 v -22.4 c 1.1,-0.3 2.5,-0.6 4.2,-0.9 1.7,-0.3 3.5,-0.4 5.4,-0.4 1.9,0 3.5,0.3 4.8,0.8 1.3,0.5 2.3,1.2 3,2.2 0.7,0.9 1.3,2.1 1.6,3.4 0.3,1.3 0.5,2.7 0.5,4.3 v 13.1 h -6.4 v -12.3 c 0,-2.3 -0.2,-3.8 -0.8,-4.7 z m -15.6,-6 -1.1,5.4 c -0.6,-0.1 -1.2,-0.3 -2,-0.5 -0.8,-0.2 -1.6,-0.2 -2.5,-0.2 -0.4,0 -0.9,0 -1.4,0.1 -0.6,0.1 -1,0.2 -1.3,0.2 v 17.7 h -6.4 v -22 c 1.1,-0.4 2.5,-0.8 4,-1.2 1.6,-0.4 3.3,-0.6 5.2,-0.6 0.3,0 0.8,0 1.2,0.1 0.5,0 1,0.1 1.5,0.2 0.5,0.1 1,0.2 1.5,0.3 0.5,0.2 0.9,0.3 1.3,0.5 z m -32.3,16.6 c 1.1,0.8 2.5,1.2 4.4,1.2 1.2,0 2.3,-0.1 3.4,-0.3 1.1,-0.2 2,-0.5 2.8,-0.8 l 0.9,5.3 c -0.3,0.2 -0.8,0.4 -1.4,0.5 -0.6,0.2 -1.2,0.3 -1.9,0.5 -0.7,0.2 -1.4,0.2 -2.2,0.3 -0.8,0.1 -1.6,0.1 -2.4,0.1 -2,0 -3.8,-0.3 -5.3,-0.9 -1.5,-0.6 -2.7,-1.5 -3.7,-2.5 -1,-1.1 -1.7,-2.3 -2.2,-3.8 -0.5,-1.5 -0.7,-3.1 -0.7,-4.8 0,-2.1 0.3,-3.9 0.9,-5.4 0.6,-1.5 1.4,-2.8 2.4,-3.9 1,-1 2.1,-1.8 3.4,-2.3 1.3,-0.5 2.6,-0.8 4,-0.8 3.2,0 5.7,1 7.6,3 1.9,2 2.8,5 2.8,8.9 0,0.4 0,0.8 0,1.3 0,0.5 -0.1,0.9 -0.1,1.2 h -14.4 c 0,1.3 0.6,2.4 1.7,3.2 z m -24.5,-17.2 c 0.8,-0.2 1.6,-0.3 2.5,-0.3 1.6,0 3,0.3 4.2,0.9 1.2,0.6 2.2,1.4 3.1,2.4 0.8,1.1 1.5,2.3 1.9,3.8 0.4,1.5 0.6,3.1 0.6,5 0,1.9 -0.3,3.5 -0.8,5 -0.5,1.5 -1.3,2.8 -2.3,3.8 -1,1.1 -2.2,1.9 -3.7,2.4 -1.5,0.5 -3.1,0.9 -5,0.9 -0.8,0 -1.6,0 -2.4,-0.1 -0.8,-0.1 -1.7,-0.2 -2.5,-0.3 -0.8,-0.1 -1.6,-0.3 -2.3,-0.4 -0.7,-0.2 -1.4,-0.3 -2,-0.5 v -32.4 l 6.4,-1.1 v 11.6 c 0.8,-0.3 1.5,-0.6 2.3,-0.7 z M 133.6,244 c 0.5,0.9 1.6,1.4 3,1.4 0.5,0 0.9,0 1.5,-0.1 0.5,0 1,-0.1 1.4,-0.2 v -17.9 h 6.4 v 22.4 c -1.1,0.3 -2.5,0.6 -4.2,0.9 -1.7,0.3 -3.5,0.4 -5.4,0.4 -1.9,0 -3.5,-0.3 -4.8,-0.8 -1.3,-0.5 -2.3,-1.3 -3,-2.2 -0.7,-1 -1.3,-2.1 -1.6,-3.4 -0.3,-1.3 -0.5,-2.8 -0.5,-4.4 v -12.9 h 6.4 v 12.1 c 0,2.2 0.3,3.8 0.8,4.7 z m -23,-10.6 c 0.7,-0.8 1.3,-1.5 1.9,-2.3 0.6,-0.7 1.2,-1.5 1.8,-2.1 0.6,-0.7 1,-1.3 1.4,-1.8 h 7.6 c -1.5,1.8 -3,3.5 -4.4,5.1 -1.4,1.6 -3,3.3 -4.7,5 0.9,0.8 1.7,1.7 2.6,2.9 0.9,1.1 1.8,2.2 2.6,3.4 0.9,1.2 1.6,2.4 2.3,3.5 0.7,1.2 1.3,2.3 1.8,3.2 h -7.3 c -0.5,-0.8 -1,-1.6 -1.6,-2.5 -0.6,-0.9 -1.2,-1.9 -1.9,-2.8 -0.7,-0.9 -1.3,-1.8 -2.1,-2.7 -0.7,-0.9 -1.4,-1.6 -2.2,-2.2 v 10.2 H 102 v -33.2 l 6.4,-1.1 v 19.4 c 0.9,-0.5 1.6,-1.2 2.2,-2 z m -10.2,100.9 v -74.7 h 230.1 v 74.7 z"
   class="st2" />
	<path
   id="path20"
   d="m 258.7,233.5 c -0.3,-0.4 -0.7,-0.8 -1.2,-1 -0.5,-0.3 -1.1,-0.4 -1.9,-0.4 -0.7,0 -1.3,0.1 -1.8,0.4 -0.5,0.3 -0.9,0.6 -1.3,1 -0.3,0.4 -0.6,0.9 -0.8,1.4 -0.2,0.5 -0.3,1.1 -0.4,1.7 h 8.4 c 0,-0.6 -0.1,-1.1 -0.3,-1.6 -0.2,-0.5 -0.4,-1.1 -0.7,-1.5 z"
   class="st2" />
	<path
   id="path22"
   d="m 158.2,245.2 c 0.3,0.1 0.7,0.1 1.2,0.2 0.5,0 1,0.1 1.6,0.1 1.7,0 3,-0.6 3.9,-1.9 0.9,-1.2 1.3,-2.9 1.3,-4.9 0,-4.2 -1.5,-6.4 -4.5,-6.4 -0.7,0 -1.3,0.1 -1.9,0.3 -0.6,0.2 -1.2,0.4 -1.6,0.7 z"
   class="st2" />
	<path
   id="path24"
   d="m 201.4,152.6 c -0.4,-1.6 -1.8,-2.7 -3.3,-2.7 -0.2,0 -0.5,0 -0.7,0.1 v 0 l -20.4,3.5 c 3.1,8.7 9,15.8 16.4,20.6 l 7.9,-19.1 -0.1,-0.1 c 0.3,-0.8 0.4,-1.6 0.2,-2.3 z"
   class="st2" />
	<polygon
   id="polygon26"
   points="208.3,137.8 209.7,144 215.4,146.7 221.1,144 222.6,137.8 218.6,132.9 212.3,132.9 "
   class="st2" />
	<path
   id="path28"
   d="m 203.7,122.2 c 0.6,0.4 1.3,0.7 2.1,0.7 1.9,0 3.4,-1.5 3.5,-3.3 h 0.1 l 1.2,-20.7 c -1.4,0.2 -2.8,0.4 -4.2,0.7 -7.7,1.7 -14.4,5.5 -19.6,10.7 z"
   class="st2" />
	<path
   id="path30"
   d="m 234.8,131.8 c -0.5,0.5 -0.9,1.1 -1.1,1.8 -0.4,1.8 0.7,3.6 2.5,4.1 v 0.1 l 20,5.8 c 0.4,-4.3 0.2,-8.8 -0.9,-13.2 -1,-4.5 -2.8,-8.7 -5.1,-12.4 z"
   class="st2" />
	<path
   id="path32"
   d="m 194.6,138 v 0 c 0.7,-0.3 1.3,-0.7 1.8,-1.3 1.2,-1.5 1,-3.6 -0.4,-4.8 v -0.1 l -15.5,-13.9 c -4.6,7.5 -6.8,16.5 -5.8,25.8 z"
   class="st2" />
	<path
   id="path34"
   d="M 410.9,269.8 372.2,101.5 215.4,26.7 v 0 L 58.6,101.6 49.7,140.3 19.9,269.9 128.4,404.8 v 0 h 174 z M 131.4,398.7 26.5,268.4 55.6,141.7 63.8,105.9 215.3,33.5 366.8,105.8 404.2,268.3 299.5,398.7 Z"
   class="st3" />
	<path
   id="path36"
   d="m 283,309.1 h -2.4 v 8.5 h 2.4 c 2.5,0 4.2,-1.7 4.2,-4.2 v 0 c 0,-2.5 -1.7,-4.3 -4.2,-4.3 z"
   class="st3" />
	<path
   id="path38"
   d="m 177.4,277.7 h -5.6 v 7.3 h 5.7 c 2.7,0 4.3,-1.5 4.3,-3.6 v -0.1 c 0,-2.3 -1.6,-3.6 -4.4,-3.6 z"
   class="st3" />
	<path
   id="path40"
   d="M 330.5,259.7 H 100.4 v 74.7 h 230.1 z m -68.7,13 v 25.5 h -5.6 v -25.5 z m -73.5,25.5 h -6.6 l -5.5,-8.2 h -4.4 v 8.2 h -5.6 v -25.5 h 11.7 c 3.2,0 5.8,0.9 7.4,2.6 1.4,1.4 2.2,3.4 2.2,5.8 v 0.1 c 0,4.1 -2.2,6.7 -5.5,7.9 z m -29.8,-15.3 v 5 h -12 v 5.4 h 13.8 v 5 h -19.4 v -25.5 h 19.2 v 5 h -13.7 v 5.2 h 12.1 z m -34.2,33.3 c 0,2.8 -2.1,4.3 -5.1,4.3 -2.1,0 -4.3,-0.7 -6,-2.2 l 1.8,-2.2 c 1.3,1 2.6,1.7 4.2,1.7 1.3,0 2,-0.5 2,-1.3 v 0 c 0,-0.8 -0.5,-1.2 -2.8,-1.8 -2.8,-0.7 -4.6,-1.5 -4.6,-4.3 v 0 c 0,-2.5 2,-4.2 4.9,-4.2 2,0 3.8,0.6 5.2,1.8 l -1.6,2.3 c -1.2,-0.9 -2.5,-1.4 -3.6,-1.4 -1.2,0 -1.8,0.5 -1.8,1.2 v 0 c 0,0.9 0.6,1.2 3,1.8 2.8,0.8 4.4,1.8 4.4,4.3 z M 112,285.5 v 0 c 0,-7.3 5.5,-13.3 13.3,-13.3 4.8,0 7.7,1.6 10.1,3.9 l -3.6,4.1 c -2,-1.8 -4,-2.9 -6.5,-2.9 -4.3,0 -7.4,3.6 -7.4,7.9 v 0.1 c 0,4.4 3,8 7.4,8 2.9,0 4.7,-1.2 6.7,-3 l 3.6,3.6 c -2.6,2.8 -5.5,4.6 -10.5,4.6 -7.6,0.1 -13.1,-5.7 -13.1,-13 z m 25.6,34.8 H 127 v -14 h 10.6 V 309 H 130 v 2.8 h 6.6 v 2.7 H 130 v 2.9 h 7.6 z m 11.3,0 -3,-4.5 h -2.4 v 4.5 h -3.1 v -14 h 6.4 c 1.8,0 3.2,0.5 4.1,1.4 0.8,0.8 1.2,1.9 1.2,3.2 v 0 c 0,2.3 -1.2,3.7 -3,4.3 l 3.4,5 h -3.6 z m 13.2,0.1 h -2.7 l -5.7,-14.1 h 3.4 l 3.7,9.9 3.7,-9.9 h 3.3 z m 11,-0.1 H 170 v -14 h 3.1 z m 10.1,0.3 c -4.1,0 -7.2,-3.2 -7.2,-7.2 v 0 c 0,-4 3,-7.3 7.3,-7.3 2.6,0 4.2,0.9 5.5,2.2 l -2,2.3 c -1.1,-1 -2.2,-1.6 -3.6,-1.6 -2.4,0 -4.1,2 -4.1,4.4 v 0 c 0,2.4 1.7,4.4 4.1,4.4 1.6,0 2.6,-0.6 3.7,-1.6 l 2,2 c -1.4,1.4 -3,2.4 -5.7,2.4 z m 18.9,-0.3 h -10.7 v -14 H 202 v 2.7 h -7.5 v 2.8 h 6.6 v 2.7 h -6.6 v 2.9 h 7.6 z m 2.9,-22.1 h -5.6 v -20.3 h -7.8 v -5.2 h 21.1 v 5.2 H 205 Z m 16.9,13 c 0,3.2 -2.5,4.9 -5.7,4.9 h -2.3 v 4.2 h -3.1 v -14 h 5.7 c 3.4,0 5.4,2 5.4,4.9 z m 2,-13 h -5.6 v -25.5 h 5.6 z m 8.8,22.1 -3,-4.5 h -2.4 v 4.5 h -3.1 v -14 h 6.4 c 1.8,0 3.2,0.5 4.1,1.4 0.8,0.8 1.2,1.9 1.2,3.2 v 0 c 0,2.3 -1.2,3.7 -3,4.3 l 3.4,5 h -3.6 z m 4.1,-22.1 h -5.6 v -25.5 h 19.4 v 5.1 h -13.8 v 5.4 H 249 v 5.1 h -12.2 z m 16.2,15.1 c 0,4 -3.1,7.3 -7.5,7.3 -4.3,0 -7.4,-3.2 -7.4,-7.2 v 0 c 0,-4 3.1,-7.3 7.5,-7.3 4.3,0 7.4,3.2 7.4,7.2 z m 9.9,7.1 h -2.7 l -5.7,-14.1 h 3.4 l 3.7,9.9 3.7,-9.9 h 3.3 z m 6.2,-47.7 h 19.2 v 5 h -13.7 v 5.2 h 12 v 5 h -12 v 5.4 h 13.8 v 5 H 269 v -25.6 z m 4.9,47.6 h -3.1 v -14 h 3.1 z m 16.4,-7 c 0,3.9 -3,7 -7.5,7 h -5.5 v -14 h 5.5 c 4.5,0 7.5,3 7.5,7 z m 13.4,7 h -10.7 v -14 h 10.6 v 2.7 h -7.5 v 2.8 h 6.6 v 2.7 h -6.6 v 2.9 h 7.6 z m -9.4,-22.1 v -25.5 h 9.9 c 8,0 13.6,5.5 13.6,12.7 v 0.1 c 0,7.2 -5.5,12.8 -13.6,12.8 h -9.9 z m 20.7,22.1 -3,-4.5 h -2.4 v 4.5 h -3.1 v -14 h 6.4 c 1.8,0 3.2,0.5 4.1,1.4 0.8,0.8 1.2,1.9 1.2,3.2 v 0 c 0,2.3 -1.2,3.7 -3,4.3 l 3.4,5 h -3.6 z"
   class="st3" />
	<path
   id="path42"
   d="m 312.7,309.1 h -3.1 v 4 h 3.1 c 1.5,0 2.4,-0.8 2.4,-2 v 0 c 0.1,-1.3 -0.9,-2 -2.4,-2 z"
   class="st3" />
	<path
   id="path44"
   d="m 146.5,309.1 h -3.1 v 4 h 3.1 c 1.5,0 2.4,-0.8 2.4,-2 v 0 c 0.1,-1.3 -0.9,-2 -2.4,-2 z"
   class="st3" />
	<path
   id="path46"
   d="m 216.3,309.1 h -2.4 v 4.3 h 2.4 c 1.5,0 2.4,-0.9 2.4,-2.1 v 0 c 0.1,-1.5 -0.8,-2.2 -2.4,-2.2 z"
   class="st3" />
	<path
   id="path48"
   d="m 230.4,309.1 h -3.1 v 4 h 3.1 c 1.5,0 2.4,-0.8 2.4,-2 v 0 c 0,-1.3 -0.9,-2 -2.4,-2 z"
   class="st3" />
	<path
   id="path50"
   d="m 245.5,308.9 c -2.5,0 -4.2,2 -4.2,4.4 v 0 c 0,2.4 1.8,4.4 4.2,4.4 2.5,0 4.2,-2 4.2,-4.4 v 0 c 0.1,-2.4 -1.7,-4.4 -4.2,-4.4 z"
   class="st3" />
	<path
   id="path52"
   d="M 304.3,277.7 H 300 v 15.4 h 4.3 c 4.6,0 7.7,-3.1 7.7,-7.6 v -0.1 c 0,-4.5 -3.1,-7.7 -7.7,-7.7 z"
   class="st3" />
	<path
   id="path54"
   d="m 135.5,294.1 -3.6,-3.6 c -2,1.8 -3.8,3 -6.7,3 -4.4,0 -7.4,-3.6 -7.4,-8 v -0.1 c 0,-4.4 3.1,-7.9 7.4,-7.9 2.6,0 4.6,1.1 6.5,2.9 l 3.6,-4.1 c -2.4,-2.3 -5.2,-3.9 -10.1,-3.9 -7.8,0 -13.3,5.9 -13.3,13.2 v 0.1 c 0,7.3 5.6,13.1 13.1,13.1 5,-0.2 7.9,-1.9 10.5,-4.7 z"
   class="st2" />
	<polygon
   id="polygon56"
   points="160.1,272.7 140.9,272.7 140.9,298.2 160.3,298.2 160.3,293.2 146.5,293.2 146.5,287.8 158.5,287.8 158.5,282.9 146.5,282.9 146.5,277.7 160.1,277.7 "
   class="st2" />
	<path
   id="path58"
   d="m 187.5,281.2 v 0 c 0,-2.5 -0.8,-4.5 -2.2,-5.9 -1.7,-1.7 -4.2,-2.6 -7.4,-2.6 h -11.7 v 25.5 h 5.6 V 290 h 4.4 l 5.5,8.2 h 6.6 l -6.2,-9.1 c 3.2,-1.2 5.4,-3.8 5.4,-7.9 z m -5.7,0.3 c 0,2.1 -1.6,3.6 -4.3,3.6 h -5.7 v -7.3 h 5.6 c 2.8,-0.1 4.4,1.2 4.4,3.7 z"
   class="st2" />
	<polygon
   id="polygon60"
   points="205,298.2 205,277.9 212.8,277.9 212.8,272.7 191.7,272.7 191.7,277.9 199.4,277.9 199.4,298.2 "
   class="st2" />
	<rect
   id="rect62"
   height="25.5"
   width="5.5999999"
   class="st2"
   y="272.70001"
   x="218.2" />
	<polygon
   id="polygon64"
   points="250.6,277.8 250.6,272.7 231.1,272.7 231.1,298.2 236.8,298.2 236.8,288.3 248.9,288.3 248.9,283.2 236.8,283.2 236.8,277.8 "
   class="st2" />
	<rect
   id="rect66"
   height="25.5"
   width="5.5999999"
   class="st2"
   y="272.70001"
   x="256.20001" />
	<polygon
   id="polygon68"
   points="274.7,293.2 274.7,287.8 286.7,287.8 286.7,282.9 274.7,282.9 274.7,277.7 288.3,277.7 288.3,272.7 269.1,272.7 269.1,298.2 288.5,298.2 288.5,293.2 "
   class="st2" />
	<path
   id="path70"
   d="m 317.9,285.4 v 0 c 0,-7.3 -5.5,-12.8 -13.6,-12.8 h -9.9 v 25.5 h 9.9 c 8,0.1 13.6,-5.5 13.6,-12.7 z m -5.9,0.1 c 0,4.5 -3.1,7.6 -7.7,7.6 H 300 v -15.4 h 4.3 c 4.6,0 7.7,3.2 7.7,7.8 z"
   class="st2" />
	<path
   id="path72"
   d="m 119.8,312 c -2.4,-0.6 -3,-0.9 -3,-1.8 v 0 c 0,-0.7 0.6,-1.2 1.8,-1.2 1.2,0 2.4,0.5 3.6,1.4 l 1.6,-2.3 c -1.4,-1.1 -3.2,-1.8 -5.2,-1.8 -2.9,0 -4.9,1.7 -4.9,4.2 v 0 c 0,2.8 1.8,3.6 4.6,4.3 2.3,0.6 2.8,1 2.8,1.8 v 0 c 0,0.8 -0.8,1.3 -2,1.3 -1.6,0 -2.9,-0.7 -4.2,-1.7 l -1.8,2.2 c 1.7,1.5 3.8,2.2 6,2.2 3,0 5.1,-1.6 5.1,-4.3 v 0 c 0.1,-2.6 -1.5,-3.6 -4.4,-4.3 z"
   class="st2" />
	<polygon
   id="polygon74"
   points="136.6,314.7 136.6,311.9 130,311.9 130,309.1 137.5,309.1 137.5,306.3 127,306.3 127,320.3 137.6,320.3 137.6,317.6 130,317.6 130,314.7 "
   class="st2" />
	<path
   id="path76"
   d="m 152.1,311 v 0 c 0,-1.4 -0.4,-2.5 -1.2,-3.2 -0.9,-0.9 -2.3,-1.4 -4.1,-1.4 h -6.4 v 14 h 3.1 v -4.5 h 2.4 l 3,4.5 h 3.6 l -3.4,-5 c 1.8,-0.7 3,-2.1 3,-4.4 z m -3.1,0.2 c 0,1.2 -0.9,2 -2.4,2 h -3.1 v -4 h 3.1 c 1.4,-0.1 2.4,0.6 2.4,2 z"
   class="st2" />
	<polygon
   id="polygon78"
   points="164.4,306.3 160.7,316.2 157.1,306.3 153.7,306.3 159.3,320.4 162.1,320.4 167.7,306.3 "
   class="st2" />
	<rect
   id="rect80"
   height="14"
   width="3.0999999"
   class="st2"
   y="306.29999"
   x="170" />
	<path
   id="path82"
   d="m 183.3,317.7 c -2.4,0 -4.1,-2 -4.1,-4.4 v 0 c 0,-2.4 1.7,-4.4 4.1,-4.4 1.4,0 2.5,0.6 3.6,1.6 l 2,-2.3 c -1.3,-1.3 -2.9,-2.2 -5.5,-2.2 -4.3,0 -7.3,3.3 -7.3,7.3 v 0 c 0,4 3.1,7.2 7.2,7.2 2.7,0 4.3,-1 5.8,-2.5 l -2,-2 c -1.2,1.1 -2.2,1.7 -3.8,1.7 z"
   class="st2" />
	<polygon
   id="polygon84"
   points="201.1,314.7 201.1,311.9 194.5,311.9 194.5,309.1 202,309.1 202,306.3 191.4,306.3 191.4,320.3 202.1,320.3 202.1,317.6 194.5,317.6 194.5,314.7 "
   class="st2" />
	<path
   id="path86"
   d="m 216.6,306.3 h -5.7 v 14 h 3.1 v -4.2 h 2.3 c 3.1,0 5.7,-1.7 5.7,-4.9 v 0 c -0.1,-2.9 -2.1,-4.9 -5.4,-4.9 z m 2.2,5 c 0,1.2 -0.9,2.1 -2.4,2.1 H 214 v -4.3 h 2.4 c 1.5,0 2.4,0.7 2.4,2.2 z"
   class="st2" />
	<path
   id="path88"
   d="m 235.9,311 v 0 c 0,-1.4 -0.4,-2.5 -1.2,-3.2 -0.9,-0.9 -2.3,-1.4 -4.1,-1.4 h -6.4 v 14 h 3.1 v -4.5 h 2.4 l 3,4.5 h 3.6 l -3.4,-5 c 1.8,-0.7 3,-2.1 3,-4.4 z m -3.1,0.2 c 0,1.2 -0.9,2 -2.4,2 h -3.1 v -4 h 3.1 c 1.5,-0.1 2.4,0.6 2.4,2 z"
   class="st2" />
	<path
   id="path90"
   d="m 245.6,306.1 c -4.3,0 -7.5,3.3 -7.5,7.3 v 0 c 0,4 3.1,7.2 7.4,7.2 4.3,0 7.5,-3.3 7.5,-7.3 v 0 c 0,-4 -3.1,-7.2 -7.4,-7.2 z m 4.2,7.3 c 0,2.4 -1.7,4.4 -4.2,4.4 -2.5,0 -4.2,-2 -4.2,-4.4 v 0 c 0,-2.4 1.7,-4.4 4.2,-4.4 2.4,-0.1 4.2,1.9 4.2,4.4 z"
   class="st2" />
	<polygon
   id="polygon92"
   points="265.3,306.3 261.6,316.2 257.9,306.3 254.5,306.3 260.2,320.4 262.9,320.4 268.6,306.3 "
   class="st2" />
	<rect
   id="rect94"
   height="14"
   width="3.0999999"
   class="st2"
   y="306.29999"
   x="270.89999" />
	<path
   id="path96"
   d="m 283,306.3 h -5.5 v 14 h 5.5 c 4.4,0 7.5,-3.1 7.5,-7 v 0 c -0.1,-4 -3.1,-7 -7.5,-7 z m 4.2,7.1 c 0,2.5 -1.7,4.2 -4.2,4.2 h -2.4 v -8.5 h 2.4 c 2.5,0 4.2,1.8 4.2,4.3 z"
   class="st2" />
	<polygon
   id="polygon98"
   points="302.8,314.7 302.8,311.9 296.2,311.9 296.2,309.1 303.7,309.1 303.7,306.3 293.2,306.3 293.2,320.3 303.8,320.3 303.8,317.6 296.2,317.6 296.2,314.7 "
   class="st2" />
	<path
   id="path100"
   d="m 318.3,311 v 0 c 0,-1.4 -0.4,-2.5 -1.2,-3.2 -0.9,-0.9 -2.3,-1.4 -4.1,-1.4 h -6.4 v 14 h 3.1 v -4.5 h 2.4 l 3,4.5 h 3.6 l -3.4,-5 c 1.8,-0.7 3,-2.1 3,-4.4 z m -3.1,0.2 c 0,1.2 -0.9,2 -2.4,2 h -3.1 v -4 h 3.1 c 1.4,-0.1 2.4,0.6 2.4,2 z"
   class="st2" />
	<path
   id="path102"
   d="m 102.3,217.3 v 33.2 h 6.4 v -10.2 c 0.7,0.6 1.4,1.3 2.2,2.2 0.7,0.9 1.4,1.7 2.1,2.7 0.7,0.9 1.3,1.9 1.9,2.8 0.6,0.9 1.1,1.8 1.6,2.5 h 7.3 c -0.5,-1 -1.1,-2 -1.8,-3.2 -0.7,-1.2 -1.5,-2.4 -2.3,-3.5 -0.9,-1.2 -1.7,-2.3 -2.6,-3.4 -0.9,-1.1 -1.8,-2.1 -2.6,-2.9 1.7,-1.7 3.3,-3.4 4.7,-5 1.4,-1.6 2.9,-3.3 4.4,-5.1 H 116 c -0.4,0.5 -0.9,1.1 -1.4,1.8 -0.6,0.7 -1.1,1.4 -1.8,2.1 -0.6,0.7 -1.3,1.5 -1.9,2.3 -0.7,0.8 -1.3,1.5 -1.9,2.2 v -19.4 z"
   class="st3" />
	<path
   id="path104"
   d="m 126.4,227.3 v 12.9 c 0,1.6 0.2,3 0.5,4.4 0.3,1.3 0.8,2.5 1.6,3.4 0.7,1 1.7,1.7 3,2.2 1.3,0.5 2.9,0.8 4.8,0.8 1.9,0 3.7,-0.1 5.4,-0.4 1.7,-0.3 3.1,-0.6 4.2,-0.9 v -22.4 h -6.4 v 17.9 c -0.4,0.1 -0.9,0.1 -1.4,0.2 -0.5,0 -1,0.1 -1.5,0.1 -1.5,0 -2.5,-0.5 -3,-1.4 -0.5,-0.9 -0.8,-2.5 -0.8,-4.6 v -12.1 h -6.4 z"
   class="st3" />
	<path
   id="path106"
   d="m 151.8,217.3 v 32.4 c 0.6,0.2 1.2,0.3 2,0.5 0.7,0.2 1.5,0.3 2.3,0.4 0.8,0.1 1.6,0.2 2.5,0.3 0.8,0.1 1.6,0.1 2.4,0.1 1.9,0 3.5,-0.3 5,-0.9 1.5,-0.6 2.7,-1.4 3.7,-2.4 1,-1.1 1.8,-2.3 2.3,-3.8 0.5,-1.5 0.8,-3.2 0.8,-5 0,-1.8 -0.2,-3.5 -0.6,-5 -0.4,-1.5 -1.1,-2.8 -1.9,-3.8 -0.8,-1.1 -1.9,-1.9 -3.1,-2.4 -1.2,-0.6 -2.6,-0.9 -4.2,-0.9 -0.9,0 -1.7,0.1 -2.5,0.3 -0.8,0.2 -1.5,0.4 -2.2,0.7 v -11.6 z m 7.9,15.3 c 0.6,-0.2 1.3,-0.3 1.9,-0.3 3,0 4.5,2.1 4.5,6.4 0,2 -0.4,3.7 -1.3,4.9 -0.9,1.2 -2.2,1.9 -3.9,1.9 -0.6,0 -1.1,0 -1.6,-0.1 -0.5,0 -0.9,-0.1 -1.2,-0.2 v -12 c 0.5,-0.2 1,-0.4 1.6,-0.6 z"
   class="st3" />
	<path
   id="path108"
   d="m 197.6,239.8 c 0,-0.5 0,-0.9 0,-1.3 0,-3.9 -0.9,-6.9 -2.8,-8.9 -1.9,-2 -4.4,-3 -7.6,-3 -1.4,0 -2.7,0.3 -4,0.8 -1.3,0.5 -2.4,1.3 -3.4,2.3 -1,1 -1.8,2.3 -2.4,3.9 -0.6,1.5 -0.9,3.3 -0.9,5.4 0,1.7 0.2,3.3 0.7,4.8 0.5,1.5 1.2,2.7 2.2,3.8 1,1.1 2.2,1.9 3.7,2.5 1.5,0.6 3.3,0.9 5.3,0.9 0.8,0 1.6,0 2.4,-0.1 0.8,-0.1 1.5,-0.2 2.2,-0.3 0.7,-0.1 1.3,-0.3 1.9,-0.5 0.6,-0.2 1,-0.4 1.4,-0.5 l -0.9,-5.3 c -0.7,0.3 -1.6,0.6 -2.8,0.8 -1.1,0.2 -2.3,0.3 -3.4,0.3 -1.8,0 -3.3,-0.4 -4.4,-1.2 -1.1,-0.8 -1.7,-1.9 -1.8,-3.2 h 14.4 c 0.2,-0.3 0.2,-0.7 0.2,-1.2 z m -14.5,-3.3 c 0.1,-0.6 0.2,-1.1 0.4,-1.7 0.2,-0.5 0.4,-1 0.8,-1.4 0.3,-0.4 0.8,-0.7 1.3,-1 0.5,-0.2 1.1,-0.4 1.8,-0.4 0.7,0 1.4,0.1 1.9,0.4 0.5,0.3 0.9,0.6 1.2,1 0.3,0.4 0.6,0.9 0.7,1.4 0.2,0.5 0.2,1.1 0.3,1.6 h -8.4 z"
   class="st3" />
	<path
   id="path110"
   d="m 213,226.9 c -0.5,0 -0.9,-0.1 -1.2,-0.1 -1.9,0 -3.6,0.2 -5.2,0.6 -1.6,0.4 -2.9,0.8 -4,1.2 v 22 h 6.4 v -17.7 c 0.3,-0.1 0.7,-0.2 1.3,-0.2 0.6,-0.1 1,-0.1 1.4,-0.1 0.9,0 1.7,0.1 2.5,0.2 0.8,0.2 1.4,0.3 2,0.5 l 1.1,-5.4 c -0.3,-0.1 -0.8,-0.3 -1.2,-0.4 -0.5,-0.1 -1,-0.2 -1.5,-0.3 -0.6,-0.2 -1.1,-0.3 -1.6,-0.3 z"
   class="st3" />
	<path
   id="path112"
   d="m 240,250.5 v -13.1 c 0,-1.6 -0.2,-3 -0.5,-4.3 -0.3,-1.3 -0.8,-2.4 -1.6,-3.4 -0.7,-0.9 -1.7,-1.7 -3,-2.2 -1.3,-0.5 -2.9,-0.8 -4.8,-0.8 -1.9,0 -3.7,0.1 -5.4,0.4 -1.7,0.3 -3.1,0.6 -4.2,0.9 v 22.4 h 6.4 v -17.9 c 0.4,-0.1 0.9,-0.1 1.4,-0.2 0.5,0 1,-0.1 1.5,-0.1 1.5,0 2.5,0.4 3,1.3 0.5,0.9 0.8,2.4 0.8,4.5 v 12.3 h 6.4 z"
   class="st3" />
	<path
   id="path114"
   d="m 265.8,239.8 c 0,-0.5 0,-0.9 0,-1.3 0,-3.9 -0.9,-6.9 -2.8,-8.9 -1.9,-2 -4.4,-3 -7.6,-3 -1.4,0 -2.7,0.3 -4,0.8 -1.3,0.5 -2.4,1.3 -3.4,2.3 -1,1 -1.8,2.3 -2.4,3.9 -0.6,1.5 -0.9,3.3 -0.9,5.4 0,1.7 0.2,3.3 0.7,4.8 0.5,1.5 1.2,2.7 2.2,3.8 1,1.1 2.2,1.9 3.7,2.5 1.5,0.6 3.3,0.9 5.3,0.9 0.8,0 1.6,0 2.4,-0.1 0.8,-0.1 1.5,-0.2 2.2,-0.3 0.7,-0.1 1.3,-0.3 1.9,-0.5 0.6,-0.2 1,-0.4 1.4,-0.5 l -0.9,-5.3 c -0.7,0.3 -1.6,0.6 -2.8,0.8 -1.1,0.2 -2.3,0.3 -3.4,0.3 -1.8,0 -3.3,-0.4 -4.4,-1.2 -1.1,-0.8 -1.7,-1.9 -1.8,-3.2 h 14.4 c 0.1,-0.3 0.1,-0.7 0.2,-1.2 z m -14.6,-3.3 c 0.1,-0.6 0.2,-1.1 0.4,-1.7 0.2,-0.5 0.4,-1 0.8,-1.4 0.3,-0.4 0.8,-0.7 1.3,-1 0.5,-0.2 1.1,-0.4 1.8,-0.4 0.7,0 1.4,0.1 1.9,0.4 0.5,0.3 0.9,0.6 1.2,1 0.3,0.4 0.6,0.9 0.7,1.4 0.1,0.5 0.2,1.1 0.3,1.6 h -8.4 z"
   class="st3" />
	<path
   id="path116"
   d="M 270.5,221.5 V 241 c 0,1.5 0.1,2.9 0.4,4.1 0.3,1.2 0.7,2.3 1.4,3.2 0.7,0.9 1.6,1.5 2.7,2 1.1,0.5 2.6,0.7 4.3,0.7 1.4,0 2.5,-0.1 3.5,-0.4 0.9,-0.2 1.8,-0.5 2.6,-0.8 l -0.9,-5.1 c -0.6,0.2 -1.3,0.4 -2,0.6 -0.7,0.2 -1.4,0.2 -2.1,0.2 -1.4,0 -2.4,-0.4 -2.8,-1.2 -0.5,-0.8 -0.7,-1.9 -0.7,-3.3 v -8.2 h 7.6 v -5.5 h -7.6 v -6.8 z"
   class="st3" />
	<path
   id="path118"
   d="m 308.9,239.8 c 0,-0.5 0,-0.9 0,-1.3 0,-3.9 -0.9,-6.9 -2.8,-8.9 -1.9,-2 -4.4,-3 -7.6,-3 -1.4,0 -2.7,0.3 -4,0.8 -1.3,0.5 -2.4,1.3 -3.4,2.3 -1,1 -1.8,2.3 -2.4,3.9 -0.6,1.5 -0.9,3.3 -0.9,5.4 0,1.7 0.2,3.3 0.7,4.8 0.5,1.5 1.2,2.7 2.2,3.8 1,1.1 2.2,1.9 3.7,2.5 1.5,0.6 3.3,0.9 5.3,0.9 0.8,0 1.6,0 2.4,-0.1 0.8,-0.1 1.5,-0.2 2.2,-0.3 0.7,-0.1 1.3,-0.3 1.9,-0.5 0.6,-0.2 1,-0.4 1.4,-0.5 l -0.9,-5.3 c -0.7,0.3 -1.6,0.6 -2.8,0.8 -1.1,0.2 -2.3,0.3 -3.4,0.3 -1.8,0 -3.3,-0.4 -4.4,-1.2 -1.1,-0.8 -1.7,-1.9 -1.8,-3.2 h 14.4 c 0.1,-0.3 0.2,-0.7 0.2,-1.2 z m -14.5,-3.3 c 0.1,-0.6 0.2,-1.1 0.4,-1.7 0.2,-0.5 0.4,-1 0.8,-1.4 0.4,-0.4 0.8,-0.7 1.3,-1 0.5,-0.2 1.1,-0.4 1.8,-0.4 0.7,0 1.4,0.1 1.9,0.4 0.5,0.3 0.9,0.6 1.2,1 0.3,0.4 0.6,0.9 0.7,1.4 0.1,0.5 0.2,1.1 0.3,1.6 h -8.4 z"
   class="st3" />
	<path
   id="path120"
   d="m 322.8,245.4 c -0.5,0.2 -1.3,0.4 -2.5,0.4 -1.1,0 -2.2,-0.1 -3.4,-0.4 -1.1,-0.3 -2.3,-0.6 -3.3,-1 l -1.1,5.3 c 0.5,0.2 1.4,0.5 2.8,0.9 1.3,0.4 3,0.5 5,0.5 3,0 5.4,-0.6 7.1,-1.8 1.7,-1.2 2.5,-2.9 2.5,-5.2 0,-1 -0.1,-1.8 -0.3,-2.6 -0.2,-0.7 -0.6,-1.4 -1.1,-2 -0.5,-0.6 -1.2,-1.2 -2.2,-1.7 -0.9,-0.5 -2.1,-1 -3.5,-1.6 -0.7,-0.3 -1.2,-0.5 -1.7,-0.7 -0.4,-0.2 -0.8,-0.4 -1,-0.6 -0.3,-0.2 -0.4,-0.4 -0.5,-0.6 -0.1,-0.2 -0.1,-0.4 -0.1,-0.7 0,-1.1 1,-1.7 3,-1.7 1.1,0 2.1,0.1 2.9,0.3 0.9,0.2 1.7,0.4 2.4,0.7 l 1.1,-5.1 c -0.7,-0.3 -1.7,-0.6 -3,-0.8 -1.3,-0.3 -2.6,-0.4 -3.9,-0.4 -2.7,0 -4.9,0.6 -6.5,1.9 -1.6,1.3 -2.4,3 -2.4,5.2 0,1.1 0.2,2.1 0.5,2.9 0.3,0.8 0.8,1.5 1.3,2.1 0.6,0.6 1.3,1.1 2.1,1.5 0.8,0.4 1.7,0.8 2.7,1.2 1.3,0.5 2.2,0.9 2.9,1.3 0.6,0.4 0.9,0.9 0.9,1.4 0,0.6 -0.2,1.1 -0.7,1.3 z"
   class="st3" />
	<path
   id="path122"
   d="m 151,158.2 c 0,0 0.1,0 0,0 0.1,0 0.1,0 0.1,0 0.3,-0.1 0.7,-0.2 1,-0.2 1.4,-0.4 2.3,-0.9 3.5,-1.4 2.6,-0.9 4.8,-1.7 6.9,-2 0.9,-0.1 1.8,0.5 2.3,0.8 l 1.7,-0.3 c 4,12.3 12.3,22.2 22.8,28.5 l -0.7,1.7 c 0.3,0.7 0.5,1.6 0.4,2.2 -0.8,2 -2.1,4.1 -3.6,6.4 -0.7,1.1 -1.5,1.9 -2.1,3.2 -0.2,0.3 -0.4,0.8 -0.5,1.1 -1,2.2 -0.3,4.7 1.7,5.6 2,0.9 4.4,-0.1 5.5,-2.2 0,0 0,0 0,0 0,0 0,0 0,0 0.2,-0.3 0.4,-0.7 0.5,-1 0.6,-1.3 0.7,-2.4 1.1,-3.6 1,-2.6 1.6,-5.4 3.1,-7.1 0.4,-0.5 1,-0.7 1.7,-0.8 l 0.9,-1.6 c 9.2,3.5 19.4,4.5 29.7,2.1 2.3,-0.5 4.6,-1.2 6.8,-2 0.3,0.4 0.7,1.3 0.8,1.5 0.7,0.2 1.4,0.3 2,1.2 1.1,1.8 1.8,4 2.7,6.6 0.4,1.2 0.6,2.3 1.1,3.6 0.1,0.3 0.3,0.7 0.5,1 1.1,2.2 3.5,3.2 5.5,2.2 2,-0.9 2.7,-3.4 1.7,-5.6 -0.2,-0.3 -0.4,-0.8 -0.5,-1.1 -0.7,-1.2 -1.4,-2.1 -2.1,-3.1 -1.5,-2.3 -2.7,-4.3 -3.5,-6.3 -0.3,-1 0.1,-1.7 0.3,-2.3 -0.1,-0.2 -0.5,-1.1 -0.7,-1.6 10.9,-6.5 19,-16.8 22.8,-28.7 0.5,0.1 1.4,0.2 1.7,0.3 0.6,-0.4 1.1,-0.9 2.2,-0.8 2.1,0.3 4.3,1.1 6.9,2 1.2,0.5 2.2,1 3.5,1.4 0.3,0.1 0.7,0.1 1,0.2 0,0 0,0 0.1,0 0,0 0,0 0.1,0 2.3,0.5 4.6,-0.8 5.1,-2.9 0.5,-2.1 -1,-4.3 -3.3,-4.8 -0.3,-0.1 -0.8,-0.2 -1.1,-0.3 -1.4,-0.3 -2.5,-0.2 -3.8,-0.3 -2.8,-0.3 -5.1,-0.5 -7.1,-1.2 -0.8,-0.3 -1.4,-1.3 -1.7,-1.7 l -1.6,-0.5 c 0.8,-6 0.6,-12.2 -0.8,-18.5 -1.4,-6.3 -4,-12 -7.4,-17.1 0.4,-0.4 1.2,-1.1 1.4,-1.3 0.1,-0.7 0,-1.5 0.7,-2.2 1.6,-1.5 3.5,-2.7 5.9,-4.1 1.1,-0.7 2.2,-1.1 3.3,-1.9 0.3,-0.2 0.6,-0.5 0.9,-0.7 1.9,-1.5 2.3,-4.1 1,-5.8 -1.4,-1.7 -4,-1.9 -5.9,-0.4 -0.3,0.2 -0.6,0.5 -0.9,0.7 -1.1,0.9 -1.7,1.8 -2.6,2.8 -1.9,2 -3.6,3.6 -5.3,4.8 -0.8,0.4 -1.9,0.3 -2.4,0.3 l -1.5,1.1 c -8.6,-9 -20.2,-14.7 -32.8,-15.8 0,-0.5 -0.1,-1.5 -0.1,-1.8 -0.5,-0.5 -1.1,-0.9 -1.3,-2 -0.2,-2.1 0.1,-4.4 0.4,-7.2 0.2,-1.3 0.5,-2.4 0.5,-3.8 0,-0.3 0,-0.8 0,-1.1 0,-2.4 -1.8,-4.4 -4,-4.4 -2.2,0 -4,2 -4,4.4 0,0 0,0.1 0,0.1 0,0.3 0,0.7 0,1 0.1,1.4 0.4,2.5 0.5,3.8 0.3,2.8 0.6,5 0.4,7.2 -0.2,0.8 -0.8,1.5 -1.3,2 l -0.1,1.7 c -2.4,0.2 -4.8,0.6 -7.1,1.1 -10.3,2.3 -19.1,7.6 -25.8,14.8 -0.4,-0.3 -1.2,-0.8 -1.4,-1 -0.7,0.1 -1.4,0.3 -2.3,-0.2 -1.8,-1.2 -3.4,-2.8 -5.3,-4.8 -0.9,-0.9 -1.5,-1.8 -2.6,-2.8 -0.2,-0.2 -0.6,-0.5 -0.9,-0.7 -0.8,-0.7 -1.8,-1 -2.8,-1 -1.2,0 -2.4,0.4 -3.1,1.4 -1.4,1.7 -0.9,4.3 1,5.8 0,0 0,0 0.1,0 0.3,0.2 0.6,0.5 0.8,0.7 1.1,0.8 2.2,1.3 3.3,1.9 2.4,1.5 4.3,2.7 5.9,4.1 0.6,0.6 0.7,1.8 0.8,2.3 l 1.3,1.1 c -6.8,10.2 -9.9,22.8 -8.1,35.7 l -1.7,0.5 c -0.4,0.6 -1.1,1.5 -1.7,1.7 -2,0.6 -4.3,0.9 -7.1,1.2 -1.3,0.1 -2.4,0 -3.8,0.3 -0.3,0.1 -0.7,0.2 -1.1,0.2 0,0 0,0 0,0 0,0 0,0 -0.1,0 -2.3,0.6 -3.8,2.7 -3.3,4.8 0.4,2.2 2.7,3.5 5,2.9 z m 50.3,-3.4 -7.9,19.1 C 186,169.2 180.1,162.1 177,153.3 l 20.4,-3.5 v 0 c 0.2,0 0.5,-0.1 0.7,-0.1 1.6,0 3,1.1 3.3,2.7 0.2,0.9 0.1,1.7 -0.1,2.4 z m 23.3,24.6 c -7.7,1.7 -15.4,1.2 -22.3,-1.1 l 10,-18.1 v 0 c 0.6,-1.1 1.7,-1.8 2.9,-1.8 0.5,0 1.1,0.1 1.6,0.3 0.7,0.3 1.2,0.9 1.6,1.5 h 0.1 l 10.1,18.2 c -1.3,0.3 -2.6,0.7 -4,1 z m 13,-5.4 -8,-19.3 v 0 c -0.7,-1.7 0,-3.7 1.7,-4.5 0.4,-0.2 0.9,-0.3 1.3,-0.3 0.3,0 0.5,0 0.8,0.1 v 0 l 20.6,3.5 c -3,8.3 -8.7,15.6 -16.4,20.5 z m 17.8,-43.6 c 1,4.5 1.3,8.9 0.9,13.2 l -20,-5.8 v -0.1 c -1.8,-0.5 -2.9,-2.3 -2.5,-4.1 0.2,-0.7 0.6,-1.4 1.1,-1.8 v 0 L 250.3,118 c 2.3,3.7 4,7.9 5.1,12.4 z m -11.3,-20.2 -16.9,12 h -0.1 c -1.5,1.1 -3.6,0.8 -4.8,-0.6 -0.5,-0.6 -0.7,-1.3 -0.8,-2 v 0 l -1.2,-20.7 c 9.1,1 17.4,5.1 23.8,11.3 z m -31.8,22.7 h 6.4 l 4,4.9 -1.4,6.2 -5.7,2.7 -5.7,-2.8 -1.4,-6.2 z m -6,-33.4 c 1.4,-0.3 2.8,-0.6 4.2,-0.7 l -1.2,20.7 h -0.1 c -0.1,1.9 -1.6,3.3 -3.5,3.3 -0.8,0 -1.5,-0.2 -2.1,-0.7 v 0 l -17,-12.1 c 5.3,-4.9 12,-8.7 19.7,-10.5 z m -25.8,18.4 15.5,13.9 v 0.1 c 1.4,1.2 1.6,3.3 0.4,4.8 -0.5,0.6 -1.1,1 -1.8,1.2 v 0.1 l -19.9,5.7 c -1,-9.3 1.2,-18.3 5.8,-25.8 z"
   class="st3" />
</g>
</svg>
