<?xml version="1.0" encoding="UTF-8" standalone="no"?>
<svg
   xmlns:dc="http://purl.org/dc/elements/1.1/"
   xmlns:cc="http://creativecommons.org/ns#"
   xmlns:rdf="http://www.w3.org/1999/02/22-rdf-syntax-ns#"
   xmlns:svg="http://www.w3.org/2000/svg"
   xmlns="http://www.w3.org/2000/svg"
   xmlns:sodipodi="http://sodipodi.sourceforge.net/DTD/sodipodi-0.dtd"
   xmlns:inkscape="http://www.inkscape.org/namespaces/inkscape"
   inkscape:version="1.0 (4035a4fb49, 2020-05-01)"
   height="100"
   width="157.07001"
   sodipodi:docname="redhat.svg"
   xml:space="preserve"
   viewBox="0 0 157.07001 99.999998"
   y="0px"
   x="0px"
   id="Layer_1"
   version="1.1"><metadata
   id="metadata96"><rdf:RDF><cc:Work
       rdf:about=""><dc:format>image/svg+xml</dc:format><dc:type
         rdf:resource="http://purl.org/dc/dcmitype/StillImage" /><dc:title></dc:title></cc:Work></rdf:RDF></metadata><defs
   id="defs94" /><sodipodi:namedview
   inkscape:current-layer="Layer_1"
   inkscape:window-maximized="0"
   inkscape:window-y="178"
   inkscape:window-x="135"
   inkscape:cy="58.014224"
   inkscape:cx="76.161199"
   inkscape:zoom="4"
   showgrid="false"
   id="namedview92"
   inkscape:window-height="824"
   inkscape:window-width="1625"
   inkscape:pageshadow="2"
   inkscape:pageopacity="0"
   guidetolerance="10"
   gridtolerance="10"
   objecttolerance="10"
   borderopacity="1"
   bordercolor="#666666"
   pagecolor="#ffffff" />
<style
   id="style2"
   type="text/css">
	.st0{fill:#EE0000;}
	.st1{fill:#595959;}
	.st2{fill:#EC2636;}
	.st3{enable-background:new    ;}
	.st4{fill:#FFFFFF;}
</style>
<g
   transform="matrix(0.25674,0,0,0.25674,-0.51348,-0.51348)"
   id="g89">
	<title
   id="title4">Logo-Red_Hat-Premier_Bus_Partner-A-Standard-RGB</title>
	<g
   id="Business_Partner">
		<rect
   id="rect6"
   height="91.800003"
   width="611.79999"
   class="st0"
   y="201.8"
   x="2" />
		<rect
   id="rect8"
   height="91.599998"
   width="611.79999"
   class="st1"
   y="299.89999"
   x="2" />
		<path
   id="path10"
   d="m 581.2,94.3 c 0,11.9 7.2,17.7 20.2,17.7 4,-0.1 8,-0.7 11.9,-1.7 V 96.5 c -2.5,0.8 -5.1,1.2 -7.7,1.2 -5.4,0 -7.4,-1.7 -7.4,-6.7 V 69.8 h 15.6 V 55.6 h -15.6 v -18 l -17,3.7 V 55.6 H 570 v 14.2 h 11.2 z m -53,0.3 c 0,-3.7 3.7,-5.5 9.3,-5.5 3.4,0 6.8,0.4 10.1,1.3 v 7.2 c -3.2,1.8 -6.9,2.7 -10.6,2.6 -5.5,0 -8.7,-2.1 -8.8,-5.6 m 5.3,17.6 c 6,0 10.8,-1.3 15.4,-4.3 v 3.4 h 16.8 V 75.6 c 0,-13.6 -9.2,-21 -24.4,-21 -8.5,0 -16.9,2 -26,6.1 l 6.1,12.5 c 6.5,-2.7 12,-4.4 16.8,-4.4 7,0 10.6,2.7 10.6,8.3 v 2.7 c -4.1,-1.1 -8.4,-1.6 -12.6,-1.6 -14.3,0 -22.9,6 -22.9,16.7 0,9.9 7.7,17.3 20.2,17.3 M 441,111.3 h 18.1 V 82.4 h 30.3 v 28.8 h 18.1 V 37.6 H 489.4 V 65.9 H 459.1 V 37.6 H 441 Z M 372.1,83.4 c 0,-8 6.3,-14.1 14.6,-14.1 4.3,-0.1 8.5,1.4 11.8,4.3 V 93 c -3.2,3 -7.4,4.6 -11.8,4.4 -8.2,0 -14.6,-6.1 -14.6,-14 m 26.6,27.8 h 16.8 V 33.9 l -17,3.7 v 20.9 c -4.3,-2.5 -9.2,-3.7 -14.2,-3.7 -16.2,0 -28.9,12.5 -28.9,28.5 -0.2,15.6 12.3,28.4 27.9,28.6 0.2,0 0.3,0 0.5,0 5.4,0 10.6,-1.7 14.9,-4.8 z M 321.5,68.5 c 5.4,0 9.9,3.5 11.7,8.8 H 310 c 1.7,-5.5 5.9,-8.8 11.5,-8.8 m -28.7,15 c 0,16.2 13.2,28.8 30.3,28.8 9.4,0 16.2,-2.5 23.2,-8.4 L 335,93.9 c -2.6,2.7 -6.5,4.2 -11.1,4.2 -5.9,0.2 -11.4,-3.3 -13.7,-8.8 h 39.6 v -4.2 c 0,-17.7 -11.9,-30.4 -28.1,-30.4 -15.8,-0.2 -28.8,12.4 -29,28.1 0.1,0.2 0.1,0.4 0.1,0.7 M 263.5,53.1 c 6,0 9.4,3.8 9.4,8.3 0,4.5 -3.4,8.3 -9.4,8.3 H 245.6 V 53.1 Z m -36,58.1 h 18.1 V 84.4 h 13.8 l 13.9,26.8 h 20.2 L 277.3,81.7 c 8.4,-3.4 13.9,-11.6 13.9,-20.7 0,-13.2 -10.4,-23.5 -26,-23.5 h -37.6 z" />
		<path
   id="path12"
   d="m 129,85 c 12.5,0 30.6,-2.6 30.6,-17.5 0,-1.1 -0.1,-2.3 -0.3,-3.4 L 151.9,31.7 C 150.2,24.6 148.7,21.3 136.2,15.1 126.4,10.2 105.3,2 99,2 93.2,2 91.4,9.5 84.6,9.5 77.9,9.5 73,3.9 66.7,3.9 c -6,0 -9.9,4.1 -12.9,12.5 0,0 -8.4,23.7 -9.5,27.2 -0.2,0.6 -0.3,1.3 -0.2,1.9 C 44,54.8 80.3,85 129,85 m 32.6,-11.4 c 1.7,8.2 1.7,9.1 1.7,10.1 0,14 -15.7,21.8 -36.4,21.8 C 80,105.5 39.1,78.1 39.1,60 c 0,-2.5 0.5,-5 1.5,-7.3 C 23.8,53.5 2,56.5 2,75.7 2,107.2 76.6,146 135.6,146 c 45.3,0 56.7,-20.5 56.7,-36.7 0,-12.7 -11,-27.1 -30.7,-35.7"
   class="st2" />
		<path
   id="path14"
   d="m 161.5,73.6 c 1.7,8.2 1.7,9.1 1.7,10.1 0,14 -15.7,21.8 -36.4,21.8 C 80,105.5 39.1,78.1 39.1,60 c 0,-2.5 0.5,-5 1.5,-7.3 l 3.7,-9.1 C 44.1,44.2 44,44.9 44.1,45.5 44,54.8 80.3,85 129,85 c 12.5,0 30.6,-2.6 30.6,-17.5 0,-1.1 -0.1,-2.3 -0.3,-3.4 z" />
		<path
   id="path16"
   d="m 129,85 c 12.5,0 30.6,-2.6 30.6,-17.5 0,-1.1 -0.1,-2.3 -0.3,-3.4 L 151.9,31.7 C 150.2,24.6 148.7,21.3 136.2,15.1 126.4,10.2 105.3,2 99,2 93.2,2 91.4,9.5 84.6,9.5 77.9,9.5 73,3.9 66.7,3.9 c -6,0 -9.9,4.1 -12.9,12.5 0,0 -8.4,23.7 -9.5,27.2 -0.2,0.6 -0.3,1.3 -0.2,1.9 C 44,54.8 80.3,85 129,85 m 32.6,-11.4 c 1.7,8.2 1.7,9.1 1.7,10.1 0,14 -15.7,21.8 -36.4,21.8 C 80,105.5 39.1,78.1 39.1,60 c 0,-2.5 0.5,-5 1.5,-7.3 C 23.8,53.5 2,56.5 2,75.7 2,107.2 76.6,146 135.6,146 c 45.3,0 56.7,-20.5 56.7,-36.7 0,-12.7 -11,-27.1 -30.7,-35.7"
   class="st0" />
		<path
   id="path18"
   d="m 161.5,73.6 c 1.7,8.2 1.7,9.1 1.7,10.1 0,14 -15.7,21.8 -36.4,21.8 C 80,105.5 39.1,78.1 39.1,60 c 0,-2.5 0.5,-5 1.5,-7.3 l 3.7,-9.1 C 44.1,44.2 44,44.9 44.1,45.5 44,54.8 80.3,85 129,85 c 12.5,0 30.6,-2.6 30.6,-17.5 0,-1.1 -0.1,-2.3 -0.3,-3.4 z" />
		<g
   id="g22"
   class="st3">
			<path
   id="path20"
   d="m 35.3,266 v -36.2 h 18.2 c 1.8,0 3.4,0.3 4.9,0.9 1.5,0.6 2.8,1.4 3.9,2.4 1.1,1 1.9,2.2 2.5,3.6 0.6,1.4 0.9,2.9 0.9,4.6 0,1.6 -0.3,3.1 -0.9,4.5 -0.6,1.4 -1.4,2.5 -2.5,3.5 -1.1,1 -2.4,1.8 -3.9,2.3 -1.5,0.6 -3.1,0.8 -4.9,0.8 H 42.8 V 266 Z m 17.3,-29.7 h -9.8 v 9.9 h 9.8 c 1.6,0 2.9,-0.4 3.9,-1.3 1,-0.9 1.5,-2.1 1.5,-3.6 0,-1.5 -0.5,-2.7 -1.5,-3.6 -1,-1 -2.3,-1.4 -3.9,-1.4 z"
   class="st4" />
		</g>
		<g
   id="g26"
   class="st3">
			<path
   id="path24"
   d="m 69.5,266 v -27 h 7.1 v 3 c 0.9,-1.2 1.9,-2.1 3.1,-2.7 1.2,-0.6 2.6,-0.9 4.1,-0.9 0.7,0 1.3,0.1 1.7,0.2 0.4,0.1 0.9,0.2 1.2,0.4 v 6.2 c -0.5,-0.2 -1.1,-0.4 -1.7,-0.5 -0.6,-0.1 -1.3,-0.2 -1.9,-0.2 -1.4,0 -2.6,0.3 -3.8,1 -1.2,0.7 -2.1,1.7 -2.7,3 V 266 Z"
   class="st4" />
		</g>
		<g
   id="g38"
   class="st3">
			<path
   id="path28"
   d="m 112.9,262.7 c -1.7,1.3 -3.4,2.3 -5.1,2.9 -1.7,0.6 -3.7,0.9 -5.8,0.9 -2,0 -3.9,-0.4 -5.7,-1.1 -1.8,-0.7 -3.3,-1.7 -4.6,-2.9 -1.3,-1.2 -2.3,-2.7 -3.1,-4.4 -0.7,-1.7 -1.1,-3.5 -1.1,-5.5 0,-1.9 0.4,-3.8 1.1,-5.5 0.7,-1.7 1.7,-3.2 2.9,-4.5 1.2,-1.3 2.7,-2.3 4.4,-3 1.7,-0.7 3.5,-1.1 5.5,-1.1 1.9,0 3.7,0.4 5.3,1.1 1.6,0.7 3.1,1.8 4.2,3 1.2,1.3 2.1,2.8 2.8,4.6 0.7,1.8 1,3.7 1,5.8 v 1.9 h -20 c 0.5,1.7 1.4,3.1 2.8,4.1 1.4,1 3,1.6 4.9,1.6 1.2,0 2.3,-0.2 3.3,-0.6 1,-0.4 1.9,-0.9 2.6,-1.6 z m -11.7,-18.2 c -1.6,0 -3,0.5 -4.2,1.5 -1.2,1 -2,2.3 -2.4,4 h 13.2 c -0.4,-1.6 -1.3,-2.9 -2.5,-3.9 -1.2,-1 -2.5,-1.6 -4.1,-1.6 z"
   class="st4" />
			<path
   id="path30"
   d="m 118.6,266 v -27 h 7.1 v 2 c 1,-0.8 2,-1.5 3.2,-1.9 1.2,-0.4 2.4,-0.6 3.8,-0.6 1.7,0 3.3,0.4 4.7,1.1 1.4,0.7 2.5,1.7 3.4,3 1.1,-1.3 2.4,-2.3 3.9,-3 1.5,-0.7 3.2,-1 5,-1 3,0 5.5,1 7.4,3 1.9,2 2.9,4.6 2.9,7.7 V 266 h -7.1 v -15.7 c 0,-1.7 -0.5,-3.1 -1.4,-4.1 -0.9,-1 -2.1,-1.6 -3.7,-1.6 -1.1,0 -2,0.2 -2.9,0.7 -0.9,0.5 -1.6,1.1 -2.3,2 0,0.3 0.1,0.6 0.1,0.9 0,0.3 0.1,0.6 0.1,1 V 266 h -7.1 v -15.7 c 0,-1.7 -0.5,-3.1 -1.4,-4.1 -0.9,-1 -2.1,-1.6 -3.7,-1.6 -1.1,0 -2,0.2 -2.8,0.6 -0.8,0.4 -1.6,1 -2.2,1.8 v 19 z"
   class="st4" />
			<path
   id="path32"
   d="m 168.5,235.9 c -1.1,0 -2.1,-0.4 -2.8,-1.2 -0.8,-0.8 -1.2,-1.7 -1.2,-2.8 0,-1.1 0.4,-2.1 1.2,-2.8 0.8,-0.8 1.7,-1.2 2.8,-1.2 1.1,0 2.1,0.4 2.8,1.2 0.8,0.8 1.2,1.7 1.2,2.8 0,1.1 -0.4,2.1 -1.2,2.8 -0.8,0.8 -1.7,1.2 -2.8,1.2 z m 3.5,3.2 v 27 h -7.1 v -27 z"
   class="st4" />
			<path
   id="path34"
   d="m 201.2,262.7 c -1.7,1.3 -3.4,2.3 -5.1,2.9 -1.7,0.6 -3.7,0.9 -5.8,0.9 -2,0 -3.9,-0.4 -5.7,-1.1 -1.8,-0.7 -3.3,-1.7 -4.6,-2.9 -1.3,-1.2 -2.3,-2.7 -3.1,-4.4 -0.7,-1.7 -1.1,-3.5 -1.1,-5.5 0,-1.9 0.4,-3.8 1.1,-5.5 0.7,-1.7 1.7,-3.2 2.9,-4.5 1.2,-1.3 2.7,-2.3 4.4,-3 1.7,-0.7 3.5,-1.1 5.5,-1.1 1.9,0 3.7,0.4 5.3,1.1 1.6,0.7 3.1,1.8 4.2,3 1.2,1.3 2.1,2.8 2.8,4.6 0.7,1.8 1,3.7 1,5.8 v 1.9 h -20 c 0.5,1.7 1.4,3.1 2.8,4.1 1.4,1 3,1.6 4.9,1.6 1.2,0 2.3,-0.2 3.3,-0.6 1,-0.4 1.9,-0.9 2.6,-1.6 z m -11.7,-18.2 c -1.6,0 -3,0.5 -4.2,1.5 -1.2,1 -2,2.3 -2.4,4 h 13.2 c -0.4,-1.6 -1.3,-2.9 -2.5,-3.9 -1.2,-1 -2.5,-1.6 -4.1,-1.6 z"
   class="st4" />
			<path
   id="path36"
   d="m 206.9,266 v -27 h 7.1 v 3 c 0.9,-1.2 1.9,-2.1 3.1,-2.7 1.2,-0.6 2.6,-0.9 4.1,-0.9 0.7,0 1.3,0.1 1.7,0.2 0.4,0.1 0.9,0.2 1.2,0.4 v 6.2 c -0.5,-0.2 -1.1,-0.4 -1.7,-0.5 -0.6,-0.1 -1.3,-0.2 -1.9,-0.2 -1.4,0 -2.6,0.3 -3.8,1 -1.2,0.7 -2.1,1.7 -2.7,3 V 266 Z"
   class="st4" />
		</g>
		<g
   id="g42"
   class="st3">
			<path
   id="path40"
   d="m 35.2,327.7 h 17 c 3.6,0 6.6,0.9 8.8,2.8 2.2,1.9 3.4,4.2 3.4,7.2 0,1.6 -0.4,3 -1.2,4.3 -0.8,1.3 -1.9,2.4 -3.3,3.3 1.7,0.8 3.1,2 4.1,3.4 1,1.4 1.6,3 1.6,4.8 0,3.1 -1.2,5.7 -3.5,7.6 -2.3,1.9 -5.4,2.9 -9.2,2.9 H 35.2 Z m 16.5,6.2 h -9.1 v 8.6 h 9.1 c 1.6,0 2.9,-0.4 3.8,-1.2 1,-0.8 1.4,-1.8 1.4,-3.1 0,-1.3 -0.5,-2.4 -1.4,-3.1 -0.9,-0.8 -2.2,-1.2 -3.8,-1.2 z m 0.7,23.8 c 1.7,0 3.1,-0.4 4.1,-1.3 1,-0.8 1.6,-2 1.6,-3.4 0,-1.4 -0.5,-2.5 -1.6,-3.4 -1,-0.9 -2.4,-1.3 -4.1,-1.3 h -9.8 v 9.4 z"
   class="st4" />
		</g>
		<g
   id="g52"
   class="st3">
			<path
   id="path44"
   d="m 76.3,336.9 v 15.7 c 0,1.7 0.5,3.1 1.5,4.1 1,1 2.4,1.6 4.1,1.6 1.2,0 2.3,-0.2 3.2,-0.7 0.9,-0.5 1.7,-1.1 2.4,-2 v -18.7 h 7.1 v 27 h -7.1 v -2.2 c -1,0.9 -2.2,1.5 -3.5,2 -1.3,0.5 -2.7,0.7 -4.1,0.7 -3.1,0 -5.7,-1 -7.7,-3 -2,-2 -3,-4.6 -3,-7.7 V 337 h 7.1 z"
   class="st4" />
			<path
   id="path46"
   d="m 97.3,360.7 3.5,-4.7 c 1.6,1 3.1,1.8 4.5,2.3 1.4,0.5 2.8,0.8 4.2,0.8 1.6,0 2.9,-0.3 3.8,-0.8 0.9,-0.5 1.4,-1.2 1.4,-2.1 0,-0.7 -0.3,-1.2 -0.8,-1.7 -0.5,-0.4 -1.4,-0.7 -2.6,-0.9 l -5.2,-0.8 c -2.7,-0.4 -4.7,-1.3 -6.1,-2.6 -1.4,-1.3 -2.1,-3.1 -2.1,-5.2 0,-2.6 1,-4.7 3.1,-6.2 2,-1.6 4.8,-2.3 8.2,-2.3 2,0 3.9,0.3 5.7,0.9 1.9,0.6 3.6,1.4 5.3,2.5 l -3.4,4.6 c -1.5,-0.9 -2.9,-1.5 -4.2,-1.9 -1.3,-0.4 -2.7,-0.6 -4.1,-0.6 -1.3,0 -2.3,0.2 -3.1,0.7 -0.8,0.5 -1.2,1.1 -1.2,1.9 0,0.7 0.3,1.3 0.9,1.7 0.6,0.4 1.5,0.7 2.8,0.9 l 5.2,0.8 c 2.6,0.4 4.6,1.2 6.1,2.6 1.4,1.3 2.1,3.1 2.1,5.1 0,1.3 -0.3,2.5 -0.9,3.5 -0.6,1.1 -1.4,2 -2.5,2.8 -1,0.8 -2.3,1.4 -3.7,1.9 -1.4,0.4 -3,0.7 -4.7,0.7 -2.5,0 -4.7,-0.3 -6.9,-1 -1.9,-0.8 -3.8,-1.7 -5.3,-2.9 z"
   class="st4" />
			<path
   id="path48"
   d="m 128,333.7 c -1.1,0 -2.1,-0.4 -2.8,-1.2 -0.8,-0.8 -1.2,-1.7 -1.2,-2.8 0,-1.1 0.4,-2.1 1.2,-2.8 0.8,-0.8 1.7,-1.2 2.8,-1.2 1.1,0 2.1,0.4 2.8,1.2 0.8,0.8 1.2,1.7 1.2,2.8 0,1.1 -0.4,2.1 -1.2,2.8 -0.8,0.8 -1.7,1.2 -2.8,1.2 z m 3.6,3.2 v 27 h -7.1 v -27 z"
   class="st4" />
			<path
   id="path50"
   d="m 136.6,363.9 v -27 h 7.1 v 2.1 c 1,-0.9 2.2,-1.5 3.4,-2 1.3,-0.4 2.6,-0.7 4.1,-0.7 3.1,0 5.7,1 7.7,3 2,2 3,4.6 3,7.7 v 16.8 h -7.1 v -15.7 c 0,-1.7 -0.5,-3.1 -1.5,-4.1 -1,-1 -2.4,-1.6 -4.1,-1.6 -1.2,0 -2.2,0.2 -3.2,0.7 -0.9,0.5 -1.7,1.1 -2.4,2 v 18.7 h -7 z"
   class="st4" />
		</g>
		<g
   id="g56"
   class="st3">
			<path
   id="path54"
   d="m 190.9,360.5 c -1.7,1.3 -3.4,2.3 -5.1,2.9 -1.7,0.6 -3.7,0.9 -5.8,0.9 -2,0 -3.9,-0.4 -5.7,-1.1 -1.8,-0.7 -3.3,-1.7 -4.6,-2.9 -1.3,-1.2 -2.3,-2.7 -3.1,-4.4 -0.7,-1.7 -1.1,-3.5 -1.1,-5.5 0,-1.9 0.4,-3.8 1.1,-5.5 0.7,-1.7 1.7,-3.2 2.9,-4.5 1.2,-1.3 2.7,-2.3 4.4,-3 1.7,-0.7 3.5,-1.1 5.5,-1.1 1.9,0 3.7,0.4 5.3,1.1 1.6,0.7 3.1,1.8 4.2,3 1.2,1.3 2.1,2.8 2.8,4.6 0.7,1.8 1,3.7 1,5.8 v 1.9 h -20.1 c 0.5,1.7 1.4,3.1 2.8,4.1 1.4,1 3,1.6 4.9,1.6 1.2,0 2.3,-0.2 3.3,-0.6 1,-0.4 1.9,-0.9 2.6,-1.6 z m -11.7,-18.2 c -1.6,0 -3,0.5 -4.2,1.5 -1.2,1 -2,2.3 -2.4,4 h 13.2 c -0.4,-1.6 -1.3,-2.9 -2.5,-3.9 -1.2,-1 -2.5,-1.6 -4.1,-1.6 z"
   class="st4" />
		</g>
		<g
   id="g60"
   class="st3">
			<path
   id="path58"
   d="M 194.5,360.7 198,356 c 1.6,1 3.1,1.8 4.5,2.3 1.4,0.5 2.8,0.8 4.2,0.8 1.6,0 2.9,-0.3 3.8,-0.8 0.9,-0.5 1.4,-1.2 1.4,-2.1 0,-0.7 -0.3,-1.2 -0.8,-1.7 -0.5,-0.4 -1.4,-0.7 -2.6,-0.9 l -5.2,-0.8 c -2.7,-0.4 -4.7,-1.3 -6.1,-2.6 -1.4,-1.3 -2.1,-3.1 -2.1,-5.2 0,-2.6 1,-4.7 3.1,-6.2 2,-1.6 4.8,-2.3 8.2,-2.3 2,0 3.9,0.3 5.7,0.9 1.8,0.6 3.6,1.4 5.3,2.5 l -3.4,4.6 c -1.5,-0.9 -2.9,-1.5 -4.2,-1.9 -1.3,-0.4 -2.7,-0.6 -4.1,-0.6 -1.3,0 -2.3,0.2 -3.1,0.7 -0.8,0.5 -1.2,1.1 -1.2,1.9 0,0.7 0.3,1.3 0.9,1.7 0.6,0.4 1.5,0.7 2.8,0.9 l 5.2,0.8 c 2.6,0.4 4.6,1.2 6.1,2.6 1.4,1.3 2.1,3.1 2.1,5.1 0,1.3 -0.3,2.5 -0.9,3.5 -0.6,1.1 -1.4,2 -2.5,2.8 -1,0.8 -2.3,1.4 -3.7,1.9 -1.4,0.5 -3,0.7 -4.7,0.7 -2.5,0 -4.7,-0.3 -6.9,-1 -1.9,-0.8 -3.7,-1.7 -5.3,-2.9 z"
   class="st4" />
		</g>
		<g
   id="g64"
   class="st3">
			<path
   id="path62"
   d="M 219.5,360.7 223,356 c 1.6,1 3.1,1.8 4.5,2.3 1.4,0.5 2.8,0.8 4.2,0.8 1.6,0 2.9,-0.3 3.8,-0.8 0.9,-0.5 1.4,-1.2 1.4,-2.1 0,-0.7 -0.3,-1.2 -0.8,-1.7 -0.5,-0.4 -1.4,-0.7 -2.6,-0.9 l -5.2,-0.8 c -2.7,-0.4 -4.7,-1.3 -6.1,-2.6 -1.4,-1.3 -2.1,-3.1 -2.1,-5.2 0,-2.6 1,-4.7 3.1,-6.2 2,-1.6 4.8,-2.3 8.2,-2.3 2,0 3.9,0.3 5.7,0.9 1.8,0.6 3.6,1.4 5.3,2.5 l -3.4,4.6 c -1.5,-0.9 -2.9,-1.5 -4.2,-1.9 -1.3,-0.4 -2.7,-0.6 -4.1,-0.6 -1.3,0 -2.3,0.2 -3.1,0.7 -0.8,0.5 -1.2,1.1 -1.2,1.9 0,0.7 0.3,1.3 0.9,1.7 0.6,0.4 1.5,0.7 2.8,0.9 l 5.2,0.8 c 2.6,0.4 4.6,1.2 6.1,2.6 1.4,1.3 2.1,3.1 2.1,5.1 0,1.3 -0.3,2.5 -0.9,3.5 -0.6,1.1 -1.4,2 -2.5,2.8 -1,0.8 -2.3,1.4 -3.7,1.9 -1.4,0.5 -3,0.7 -4.7,0.7 -2.5,0 -4.7,-0.3 -6.9,-1 -1.9,-0.8 -3.7,-1.7 -5.3,-2.9 z"
   class="st4" />
		</g>
		<g
   id="g68"
   class="st3">
			<path
   id="path66"
   d="m 257.1,363.9 v -36.2 h 18.2 c 1.8,0 3.4,0.3 4.9,0.9 1.5,0.6 2.8,1.4 3.9,2.4 1.1,1 1.9,2.2 2.5,3.6 0.6,1.4 0.9,2.9 0.9,4.6 0,1.6 -0.3,3.1 -0.9,4.5 -0.6,1.4 -1.4,2.5 -2.5,3.5 -1.1,1 -2.4,1.8 -3.9,2.3 -1.5,0.6 -3.1,0.8 -4.9,0.8 H 264.6 V 364 h -7.5 z m 17.3,-29.7 h -9.8 v 9.9 h 9.8 c 1.6,0 2.9,-0.4 3.9,-1.3 1,-0.9 1.5,-2.1 1.5,-3.6 0,-1.5 -0.5,-2.7 -1.5,-3.6 -1,-1 -2.3,-1.4 -3.9,-1.4 z"
   class="st4" />
		</g>
		<g
   id="g72"
   class="st3">
			<path
   id="path70"
   d="m 298.7,364.4 c -2.9,0 -5.3,-0.8 -7.1,-2.3 -1.8,-1.5 -2.7,-3.5 -2.7,-6 0,-2.6 1,-4.6 2.9,-6 2,-1.4 4.7,-2.2 8.1,-2.2 1.1,0 2.2,0.1 3.3,0.3 1.1,0.2 2.2,0.4 3.3,0.8 v -2 c 0,-1.6 -0.5,-2.7 -1.4,-3.5 -1,-0.8 -2.4,-1.2 -4.2,-1.2 -1.1,0 -2.4,0.2 -3.7,0.5 -1.3,0.4 -2.8,0.9 -4.5,1.7 l -2.6,-5.2 c 2.1,-1 4.1,-1.7 6.1,-2.2 2,-0.5 3.9,-0.7 5.9,-0.7 3.6,0 6.4,0.9 8.5,2.6 2,1.7 3,4.2 3,7.4 v 17.5 h -7 V 362 c -1.1,0.8 -2.3,1.4 -3.6,1.8 -1.3,0.4 -2.7,0.6 -4.3,0.6 z m -3,-8.5 c 0,1 0.4,1.9 1.3,2.5 0.9,0.6 2.1,0.9 3.6,0.9 1.2,0 2.3,-0.1 3.2,-0.4 1,-0.3 1.9,-0.7 2.7,-1.3 v -4 c -0.9,-0.3 -1.8,-0.6 -2.7,-0.8 -0.9,-0.2 -1.9,-0.2 -3,-0.2 -1.6,0 -2.9,0.3 -3.8,0.9 -0.9,0.6 -1.3,1.4 -1.3,2.4 z"
   class="st4" />
		</g>
		<g
   id="g76"
   class="st3">
			<path
   id="path74"
   d="m 318.4,363.9 v -27 h 7.1 v 3 c 0.9,-1.2 1.9,-2.1 3.1,-2.7 1.2,-0.6 2.6,-0.9 4.1,-0.9 0.7,0 1.3,0.1 1.7,0.2 0.4,0.1 0.9,0.2 1.2,0.4 v 6.2 c -0.5,-0.2 -1.1,-0.4 -1.7,-0.5 -0.6,-0.1 -1.3,-0.2 -1.9,-0.2 -1.4,0 -2.6,0.3 -3.8,1 -1.2,0.7 -2.1,1.7 -2.7,3 v 17.4 h -7.1 z"
   class="st4" />
		</g>
		<g
   id="g86"
   class="st3">
			<path
   id="path78"
   d="m 343,356.3 v -13.4 h -5.5 v -6 H 343 V 330 l 7.1,-1.6 v 8.5 h 7.7 v 6 h -7.7 v 12 c 0,1.3 0.3,2.2 0.8,2.7 0.6,0.5 1.5,0.8 2.9,0.8 0.7,0 1.3,0 1.9,-0.1 0.6,-0.1 1.2,-0.2 1.9,-0.5 v 5.8 c -0.8,0.2 -1.7,0.4 -2.7,0.6 -1.1,0.2 -2,0.2 -2.7,0.2 -3,0 -5.3,-0.7 -6.8,-2 -1.6,-1.5 -2.4,-3.5 -2.4,-6.1 z"
   class="st4" />
			<path
   id="path80"
   d="m 360.8,363.9 v -27 h 7.1 v 2.1 c 1,-0.9 2.2,-1.5 3.4,-2 1.3,-0.4 2.6,-0.7 4.1,-0.7 3.1,0 5.7,1 7.7,3 2,2 3,4.6 3,7.7 v 16.8 H 379 v -15.7 c 0,-1.7 -0.5,-3.1 -1.5,-4.1 -1,-1 -2.4,-1.6 -4.1,-1.6 -1.2,0 -2.2,0.2 -3.2,0.7 -1,0.5 -1.7,1.1 -2.4,2 v 18.7 h -7 z"
   class="st4" />
			<path
   id="path82"
   d="m 415.1,360.5 c -1.7,1.3 -3.4,2.3 -5.1,2.9 -1.7,0.6 -3.7,0.9 -5.8,0.9 -2,0 -3.9,-0.4 -5.7,-1.1 -1.8,-0.7 -3.3,-1.7 -4.6,-2.9 -1.3,-1.2 -2.3,-2.7 -3.1,-4.4 -0.7,-1.7 -1.1,-3.5 -1.1,-5.5 0,-1.9 0.4,-3.8 1.1,-5.5 0.7,-1.7 1.7,-3.2 2.9,-4.5 1.2,-1.3 2.7,-2.3 4.4,-3 1.7,-0.7 3.5,-1.1 5.5,-1.1 1.9,0 3.7,0.4 5.3,1.1 1.6,0.7 3.1,1.8 4.2,3 1.2,1.3 2.1,2.8 2.8,4.6 0.7,1.8 1,3.7 1,5.8 v 1.9 h -20.1 c 0.5,1.7 1.4,3.1 2.8,4.1 1.4,1 3,1.6 4.9,1.6 1.2,0 2.3,-0.2 3.3,-0.6 1,-0.4 1.9,-0.9 2.6,-1.6 z m -11.7,-18.2 c -1.6,0 -3,0.5 -4.2,1.5 -1.2,1 -2,2.3 -2.4,4 H 410 c -0.4,-1.6 -1.3,-2.9 -2.5,-3.9 -1.2,-1 -2.5,-1.6 -4.1,-1.6 z"
   class="st4" />
			<path
   id="path84"
   d="m 420.8,363.9 v -27 h 7.1 v 3 c 0.9,-1.2 1.9,-2.1 3.1,-2.7 1.2,-0.6 2.6,-0.9 4.1,-0.9 0.7,0 1.3,0.1 1.7,0.2 0.5,0.1 0.9,0.2 1.2,0.4 v 6.2 c -0.5,-0.2 -1.1,-0.4 -1.7,-0.5 -0.6,-0.1 -1.3,-0.2 -1.9,-0.2 -1.4,0 -2.6,0.3 -3.8,1 -1.2,0.7 -2.1,1.7 -2.7,3 v 17.4 h -7.1 z"
   class="st4" />
		</g>
	</g>
</g>
</svg>
