<?xml version="1.0" encoding="UTF-8" standalone="no"?>
<svg
   xmlns:dc="http://purl.org/dc/elements/1.1/"
   xmlns:cc="http://creativecommons.org/ns#"
   xmlns:rdf="http://www.w3.org/1999/02/22-rdf-syntax-ns#"
   xmlns:svg="http://www.w3.org/2000/svg"
   xmlns="http://www.w3.org/2000/svg"
   xmlns:sodipodi="http://sodipodi.sourceforge.net/DTD/sodipodi-0.dtd"
   xmlns:inkscape="http://www.inkscape.org/namespaces/inkscape"
   inkscape:version="1.0 (4035a4fb49, 2020-05-01)"
   height="100"
   width="236.495"
   sodipodi:docname="kccnc-eu-2020-color.svg"
   id="svg54"
   version="1.1"
   viewBox="-0.33 0.17 236.49501 99.999999"
   role="img">
  <metadata
     id="metadata58">
    <rdf:RDF>
      <cc:Work
         rdf:about="">
        <dc:format>image/svg+xml</dc:format>
        <dc:type
           rdf:resource="http://purl.org/dc/dcmitype/StillImage" />
        <dc:title></dc:title>
      </cc:Work>
    </rdf:RDF>
  </metadata>
  <sodipodi:namedview
     inkscape:current-layer="svg54"
     inkscape:window-maximized="0"
     inkscape:window-y="226"
     inkscape:window-x="47"
     inkscape:cy="100.30859"
     inkscape:cx="236.37556"
     inkscape:zoom="256"
     showgrid="false"
     id="namedview56"
     inkscape:window-height="856"
     inkscape:window-width="1683"
     inkscape:pageshadow="2"
     inkscape:pageopacity="0"
     guidetolerance="10"
     gridtolerance="10"
     objecttolerance="10"
     borderopacity="1"
     bordercolor="#666666"
     pagecolor="#ffffff" />
  <defs
     id="defs13">
    <clipPath
       id="clip-path">
      <path
         id="path2"
         class="cls-1"
         d="m 433.02,257.52 h 195.6 v 1 h -195.6 z" />
    </clipPath>
    <clipPath
       id="clip-path-2">
      <path
         id="path5"
         class="cls-1"
         d="m 12.32,257.52 h 191.3 v 1 H 12.32 Z" />
    </clipPath>
    <clipPath
       id="clip-path-3">
      <path
         id="path8"
         class="cls-1"
         d="m 246.42,13.32 h 1 v 203.5 h -1 z" />
    </clipPath>
    <style
       id="style11">.cls-1{fill:none}.cls-2{opacity:.8}.cls-3{fill:#939498}.cls-9{fill:#446ca9}.cls-11{fill:#221f1f}</style>
  </defs>
  <g
     transform="matrix(0.38373,0,0,0.38373,-5.0575536,-4.6353869)"
     id="g81">
    <g
       class="cls-2"
       id="g20">
      <path
         id="SVGID"
         d="m 433.02,257.52 h 195.6 v 1 h -195.6 z"
         class="cls-3" />
      <g
         clip-path="url(#clip-path)"
         id="g18">
        <path
           d="m 433.02,257.52 h 195.6 v 1 h -195.6 z"
           class="cls-3"
           id="path16" />
      </g>
    </g>
    <g
       class="cls-2"
       id="g27">
      <path
         id="SVGID-2"
         d="m 12.32,257.52 h 191.3 v 1 H 12.32 Z"
         class="cls-3"
         data-name="SVGID" />
      <g
         clip-path="url(#clip-path-2)"
         id="g25">
        <path
           d="m 12.32,257.52 h 191.3 v 1 H 12.32 Z"
           class="cls-3"
           id="path23" />
      </g>
    </g>
    <path
       fill="#4d595a"
       d="m 185.32,187.22 c 1.1,-0.3 2.4,-0.6 4.1,-0.9 a 29.60748,29.60748 0 0 1 5.2,-0.4 12.0312,12.0312 0 0 1 4.6,0.7 7.0304,7.0304 0 0 1 2.9,2.1 7.91347,7.91347 0 0 1 1.5,3.2 17.0444,17.0444 0 0 1 0.5,4.1 v 12.4 h -6.2 v -11.6 a 8.34927,8.34927 0 0 0 -0.8,-4.2 q -0.75,-1.2 -3,-1.2 a 7.08412,7.08412 0 0 0 -1.4,0.1 c -0.5,0 -0.9,0.1 -1.3,0.1 v 16.9 h -6.1 z m -11.4,10.2 a 8.30857,8.30857 0 0 0 -1.1,-4.5 4.20314,4.20314 0 0 0 -6.6,0 7.5093,7.5093 0 0 0 -1.2,4.5 8.059,8.059 0 0 0 1.2,4.6 4.053,4.053 0 0 0 6.6,0 8.93969,8.93969 0 0 0 1.1,-4.6 m 6.3,0 a 14.05481,14.05481 0 0 1 -0.7,4.7 10.70231,10.70231 0 0 1 -2.2,3.7 10.00729,10.00729 0 0 1 -7.8,3.2 12.30687,12.30687 0 0 1 -4.4,-0.8 10.03718,10.03718 0 0 1 -3.4,-2.4 10.40256,10.40256 0 0 1 -2.2,-3.7 14.20622,14.20622 0 0 1 0,-9.4 10.88741,10.88741 0 0 1 2.2,-3.6 9.75574,9.75574 0 0 1 3.4,-2.3 10.29407,10.29407 0 0 1 4.3,-0.8 11.758,11.758 0 0 1 4.3,0.8 11.34006,11.34006 0 0 1 3.4,2.3 10.88714,10.88714 0 0 1 2.2,3.6 10.39374,10.39374 0 0 1 0.9,4.7 m -33.7,11.5 c -4.7,0 -8.3,-1.3 -10.7,-3.9 -2.5,-2.6 -3.7,-6.3 -3.7,-11.1 a 18.25929,18.25929 0 0 1 1.1,-6.4 12.92465,12.92465 0 0 1 7.8,-7.6 16.25515,16.25515 0 0 1 5.9,-1 16.85676,16.85676 0 0 1 3.3,0.3 c 1,0.2 1.9,0.4 2.6,0.6 a 19.68384,19.68384 0 0 1 1.9,0.7 3.58071,3.58071 0 0 1 1.1,0.6 l -1.9,5.2 a 12.52189,12.52189 0 0 0 -3.1,-1.2 16.19938,16.19938 0 0 0 -4,-0.5 9.29069,9.29069 0 0 0 -2.9,0.5 5.98229,5.98229 0 0 0 -2.5,1.6 9.65139,9.65139 0 0 0 -1.8,2.8 13.17182,13.17182 0 0 0 -0.7,4.2 14.48212,14.48212 0 0 0 0.4,3.7 9.22777,9.22777 0 0 0 1.4,3 7.5296,7.5296 0 0 0 2.6,2 8.897,8.897 0 0 0 3.8,0.7 18.09631,18.09631 0 0 0 2.5,-0.2 10.08422,10.08422 0 0 0 2,-0.4 13.08016,13.08016 0 0 0 1.5,-0.5 6.118,6.118 0 0 1 1.2,-0.5 l 1.8,5.2 a 12.19339,12.19339 0 0 1 -3.9,1.5 19.32042,19.32042 0 0 1 -5.7,0.7 m -24.6,-13.7 a 4.01237,4.01237 0 0 0 -0.3,-1.5 5.38794,5.38794 0 0 0 -0.7,-1.3 4.00166,4.00166 0 0 0 -1.2,-1 4.77663,4.77663 0 0 0 -1.8,-0.4 3.42472,3.42472 0 0 0 -1.8,0.4 2.73,2.73 0 0 0 -1.2,0.9 4.678,4.678 0 0 0 -0.8,1.4 7.49111,7.49111 0 0 0 -0.4,1.6 h 8.2 z m -14.6,2.4 a 13.63806,13.63806 0 0 1 0.9,-5.1 9.47826,9.47826 0 0 1 2.4,-3.6 10.04447,10.04447 0 0 1 3.3,-2.2 10.72324,10.72324 0 0 1 3.9,-0.7 9.72434,9.72434 0 0 1 7.4,2.8 q 2.7,2.85 2.7,8.4 v 1.2 c 0,0.4 -0.1,0.8 -0.1,1.1 h -14.1 a 3.71723,3.71723 0 0 0 1.8,3 7.698,7.698 0 0 0 4.2,1.1 17.60961,17.60961 0 0 0 3.3,-0.3 12.543,12.543 0 0 0 2.7,-0.8 l 0.8,5 a 8.92976,8.92976 0 0 1 -1.3,0.5 10.62066,10.62066 0 0 1 -1.9,0.4 c -0.7,0.1 -1.4,0.2 -2.2,0.3 a 18.48378,18.48378 0 0 1 -2.3,0.1 12.92864,12.92864 0 0 1 -5.1,-0.9 9.47826,9.47826 0 0 1 -3.6,-2.4 8.17817,8.17817 0 0 1 -2.1,-3.6 11.41466,11.41466 0 0 1 -0.7,-4.3 m -4.1,-0.2 a 14.03351,14.03351 0 0 1 -0.8,4.7 10.88744,10.88744 0 0 1 -2.2,3.6 9.67247,9.67247 0 0 1 -3.6,2.3 14.19412,14.19412 0 0 1 -4.8,0.8 20.93015,20.93015 0 0 1 -2.4,-0.1 l -2.4,-0.3 a 18.45911,18.45911 0 0 1 -2.3,-0.4 c -0.7,-0.2 -1.4,-0.3 -1.9,-0.5 v -30.6 l 6.2,-1 v 10.9 a 14.16052,14.16052 0 0 1 2.2,-0.7 9.34492,9.34492 0 0 1 2.4,-0.2 10.33021,10.33021 0 0 1 4.1,0.8 7.56065,7.56065 0 0 1 3,2.3 10.15193,10.15193 0 0 1 1.8,3.6 15.07146,15.07146 0 0 1 0.7,4.8 m -6.3,-0.1 c 0,-4 -1.5,-6 -4.4,-6 a 12.2534,12.2534 0 0 0 -1.9,0.2 11.63826,11.63826 0 0 0 -1.5,0.6 v 11.3 a 4.12033,4.12033 0 0 0 1.2,0.1 c 0.5,0 1,0.1 1.5,0.1 a 4.452,4.452 0 0 0 3.8,-1.7 7.3769,7.3769 0 0 0 1.3,-4.6 m -20.2,10.3 c -1.1,0.3 -2.4,0.6 -4.1,0.9 a 29.60785,29.60785 0 0 1 -5.2,0.4 12.031,12.031 0 0 1 -4.6,-0.7 7.03062,7.03062 0 0 1 -2.9,-2.1 8.59286,8.59286 0 0 1 -1.5,-3.2 17.04534,17.04534 0 0 1 -0.5,-4.1 v -12.2 h 6.2 v 11.4 a 9.077,9.077 0 0 0 0.8,4.3 c 0.5,0.9 1.5,1.3 3,1.3 a 7.08352,7.08352 0 0 0 1.4,-0.1 c 0.5,0 0.9,-0.1 1.3,-0.1 v -16.9 h 6.2 v 21.1 z m -28.6,0.8 c -0.6,-0.9 -1.3,-2 -2.1,-3.1 a 37.46268,37.46268 0 0 0 -2.6,-3.3 c -0.9,-1.1 -1.9,-2.1 -2.9,-3.2 a 36.53174,36.53174 0 0 0 -3,-2.7 v 12.2 h -6.5 v -28.8 h 6.5 v 10.9 c 1.7,-1.8 3.4,-3.6 5.1,-5.6 1.7,-1.9 3.3,-3.7 4.8,-5.3 h 7.7 c -2,2.3 -3.9,4.6 -5.9,6.7 -2,2.2 -4.1,4.3 -6.3,6.5 a 54.0442,54.0442 0 0 1 6.7,6.8 88.54635,88.54635 0 0 1 6.2,8.7 h -7.7 z"
       id="path29" />
    <path
       fill="#0d717d"
       fill-rule="evenodd"
       d="m 100.12,81.12 -3.6,0.8 c 0,-0.5 -0.1,-1 -0.1,-1.5 a 20.7078,20.7078 0 0 1 3,-10.8 l 7,6.2 a 1.38019,1.38019 0 0 0 0.4,0.3 11.40359,11.40359 0 0 0 -0.8,3.3 c -0.2,0.1 -0.5,0.1 -0.7,0.2 z m 13.6,-21.2 v 9.8 a 8.6695,8.6695 0 0 0 -2.7,1.4 c -0.3,-0.2 -0.6,-0.5 -0.9,-0.7 l -7.1,-5 a 20.07749,20.07749 0 0 1 10.7,-5.5 m -48.6,22.6 c 3.4,-14.9 6.3,-27.5 9.7,-42.4 1.5,-6.8 2.5,-8.5 8.5,-12 8.4,-4.8 14.7,-8.4 23.7,-13.6 5.6,-3.2 6.7,-3 6.7,3.9 v 34.6 a 27.3041,27.3041 0 0 0 -16.4,8.3 l -3,-2.1 a 1.44537,1.44537 0 0 1 -0.7,-1 4.87065,4.87065 0 0 0 -1.6,-2.4 3.27185,3.27185 0 0 0 -4.1,5.1 3.46488,3.46488 0 0 0 1.6,0.8 c 0.4,0.1 0.8,0.1 1.2,0.2 a 2.4708,2.4708 0 0 1 0.9,0.4 l 2.8,2.5 a 27.37853,27.37853 0 0 0 -4.7,15.4 c 0,1 0.1,2 0.2,3 l -6.1,1.3 a 6.15092,6.15092 0 0 0 -1.3,0.1 l -0.9,0.3 c -4,0.8 -8,1.7 -12.1,2.6 -5.5,1.4 -5.6,0.3 -4.4,-5 m 55.7,-12.8 v -9.8 a 21.02786,21.02786 0 0 1 10.7,5.4 l -7.7,5.5 c -0.1,0.1 -0.2,0.2 -0.3,0.2 a 16.93837,16.93837 0 0 0 -2.7,-1.3 m 17.2,11.6 -9.6,-2.2 a 9.46887,9.46887 0 0 0 -0.8,-3 c 0.1,-0.1 0.2,-0.2 0.3,-0.2 l 7.1,-6.3 a 20.89419,20.89419 0 0 1 3.1,10.9 1.94943,1.94943 0 0 0 -0.1,0.8 m -12.5,-52.9 c 5.2,2.5 8.9,4.3 14.1,6.8 7.2,3.5 14.4,7 21.7,10.4 1.8,7.8 3.6,15.6 5.3,23.4 1.1,4.7 1.6,7.2 2.7,11.8 1.7,7.3 1.5,7.9 -6,6.2 l -18.5,-4.2 a 19.26681,19.26681 0 0 0 0.1,-2.4 26.80631,26.80631 0 0 0 -4.8,-15.5 l 2.6,-2.4 a 2.21973,2.21973 0 0 1 1.1,-0.5 5.2339,5.2339 0 0 0 2.7,-1 3.27185,3.27185 0 0 0 -4.1,-5.1 4.07135,4.07135 0 0 0 -1.2,1.4 c -0.2,0.4 -0.3,0.7 -0.5,1.1 a 1.55513,1.55513 0 0 1 -0.6,0.8 l -3,2.1 a 27.3041,27.3041 0 0 0 -16.4,-8.3 v -21.1 c 0.1,-5 0.6,-5.6 4.8,-3.5 m -6.3,63 a 11.07591,11.07591 0 0 1 -1.9,0.2 10.8687,10.8687 0 0 1 -1.8,-0.1 l -0.3,0.6 -4.4,8.1 a 20.76492,20.76492 0 0 0 6.6,1.1 21.86925,21.86925 0 0 0 6.7,-1.1 l -4.4,-8 a 4.45256,4.45256 0 0 1 -0.5,-0.8 m 7.7,-5.4 9.6,2.2 a 20.74272,20.74272 0 0 1 -7.8,9.5 l -3.8,-9.2 a 9.57874,9.57874 0 0 0 2,-2.5 m -28.8,2.2 9.6,-2.2 a 13.2904,13.2904 0 0 0 2.1,2.6 l -0.3,0.6 -3.5,8.5 a 19.786,19.786 0 0 1 -7.9,-9.5 m 78.5,16.8 c -4.6,5.7 -6.7,8.4 -11.3,14.1 -5.2,6.5 -9.4,11.8 -14.6,18.3 -3.7,4.7 -6.4,4.8 -12.5,4.8 h -42 c -8,0 -8.6,0 -13.5,-6.2 -4.9,-6.1 -8.7,-10.9 -13.5,-17 -3.8,-4.8 -4.8,-6 -8.6,-10.8 -5.9,-7.4 -6.9,-10.1 2.3,-12.1 l 28.4,-6.4 a 28.08143,28.08143 0 0 0 11.9,14.4 l -1.3,3 a 1.7646,1.7646 0 0 1 -0.8,0.9 4.53513,4.53513 0 0 0 -2,2.1 3.2871,3.2871 0 1 0 5.9,2.9 5.3403,5.3403 0 0 0 0.5,-1.8 4.86852,4.86852 0 0 0 -0.1,-1.2 1.803,1.803 0 0 1 0.2,-1 l 1.6,-2.9 a 27.9736,27.9736 0 0 0 9.9,1.8 26.5201,26.5201 0 0 0 10,-1.9 l 1.6,2.9 a 1.63655,1.63655 0 0 1 0.2,1.2 4.49913,4.49913 0 0 0 0.4,2.8 3.2871,3.2871 0 1 0 5.9,-2.9 4.17681,4.17681 0 0 0 -1.1,-1.5 6.07028,6.07028 0 0 0 -1,-0.7 1.242,1.242 0 0 1 -0.6,-0.8 l -1.3,-3.2 a 27.42739,27.42739 0 0 0 11.8,-14.4 l 31.3,7.1 c 6.3,1.8 5.9,4 2.3,8.5"
       id="path31" />
    <path
       fill="#009fad"
       fill-rule="evenodd"
       d="m 120.82,69.72 v -9.8 a 21.02787,21.02787 0 0 1 10.7,5.4 l -7.7,5.5 c -0.1,0.1 -0.2,0.2 -0.3,0.2 a 16.93837,16.93837 0 0 0 -2.7,-1.3 m 17.2,11.6 -9.6,-2.2 a 9.46887,9.46887 0 0 0 -0.8,-3 c 0.1,-0.1 0.2,-0.2 0.3,-0.2 l 7.1,-6.3 a 20.89419,20.89419 0 0 1 3.1,10.9 1.94943,1.94943 0 0 0 -0.1,0.8 m -12.5,-52.9 c 5.2,2.5 8.9,4.3 14.1,6.8 7.2,3.5 14.4,7 21.7,10.4 1.8,7.8 3.6,15.6 5.3,23.4 1.1,4.7 1.6,7.2 2.7,11.8 1.7,7.3 1.5,7.9 -6,6.2 l -18.5,-4.2 a 19.26681,19.26681 0 0 0 0.1,-2.4 26.80631,26.80631 0 0 0 -4.8,-15.5 l 2.6,-2.4 a 2.21973,2.21973 0 0 1 1.1,-0.5 5.2339,5.2339 0 0 0 2.7,-1 3.27185,3.27185 0 0 0 -4.1,-5.1 4.07135,4.07135 0 0 0 -1.2,1.4 c -0.2,0.4 -0.3,0.7 -0.5,1.1 a 1.55513,1.55513 0 0 1 -0.6,0.8 l -3,2.1 a 27.3041,27.3041 0 0 0 -16.4,-8.3 v -21.1 c 0.1,-5 0.6,-5.6 4.8,-3.5 m 1.4,57.6 9.6,2.2 a 20.74271,20.74271 0 0 1 -7.8,9.5 l -3.8,-9.2 a 9.57874,9.57874 0 0 0 2,-2.5 m -9.6,15.1 v -9.6 a 12.25233,12.25233 0 0 0 1.9,-0.2 2.50649,2.50649 0 0 0 0.4,0.7 l 4.4,8 a 19.60952,19.60952 0 0 1 -6.7,1.1 m 59.3,3.9 c -4.6,5.7 -6.7,8.4 -11.3,14.1 -5.2,6.5 -9.4,11.8 -14.6,18.3 -3.7,4.7 -6.4,4.8 -12.5,4.8 h -20.9 v -34.2 a 26.5201,26.5201 0 0 0 10,-1.9 l 1.6,2.9 a 1.6366,1.6366 0 0 1 0.2,1.2 4.49913,4.49913 0 0 0 0.4,2.8 3.2871,3.2871 0 0 0 5.9,-2.9 4.17683,4.17683 0 0 0 -1.1,-1.5 6.06986,6.06986 0 0 0 -1,-0.7 1.242,1.242 0 0 1 -0.6,-0.8 l -1.3,-3.2 a 27.42727,27.42727 0 0 0 11.8,-14.4 l 31.3,7.1 c 6.1,1.7 5.7,3.9 2.1,8.4"
       id="path33" />
    <path
       d="m 408.62,103.82 h -16.6 v 38.8 h 38.8 v -16.6 h -22.2 z m 83.1,0.2 v 22 h -22 l -0.1,-0.1 v 16.7 h 38.8 v -38.8 h -16.8 z m -99.7,-38.9 h 16.7 l -0.1,-0.2 v -22 h 22.1 l 0.1,0.1 v -16.7 h -38.8 z m 77.6,-38.8 v 16.6 h 22.1 v 22.2 h 16.7 v -38.8 z"
       class="cls-9"
       id="path35" />
    <path
       fill="#76c4d5"
       d="m 467.52,65.12 -22.2,-22.2 h 24.3 v -16.6 h -38.8 v 16.7 l 22,22.1 z m -20,38.7 h -14.7 l 18.4,18.4 3.8,3.8 h -24.2 v 16.6 h 38.8 v -16.7 l -11.1,-11 z m 44.2,-38.7 v 24.2 l -3.8,-3.8 -18.3,-18.4 v 14.7 l 11,11 11,11 h 16.8 v -38.7 z m -60.9,22 -22.1,-22 h -16.7 v 38.7 h 16.6 v -24.2 l 22.2,22.2 z"
       id="path37" />
    <path
       d="m 310.92,184.92 -4.2,5 a 9.83075,9.83075 0 0 0 -7.2,-3.7 8.03081,8.03081 0 0 0 -8,8.3 c 0,4.8 3.4,8.4 8,8.4 a 10.57477,10.57477 0 0 0 7.2,-3.4 l 4.3,4.5 a 17.50843,17.50843 0 0 1 -11.8,5.2 c -8.6,0 -15,-6.3 -15,-14.7 0,-8.3 6.6,-14.5 15.3,-14.5 a 17.41893,17.41893 0 0 1 11.4,4.9 z m 3.5,24.1 v -30.3 h 7.1 v 30.3 z m 35.1,-11.1 c 0,6.8 -4.8,11.3 -12,11.3 -7.2,0 -12.1,-4.5 -12.1,-11.3 0,-6.8 4.8,-11.2 12.1,-11.2 7.2,0 12,4.5 12,11.2 z m -16.9,0.1 c 0,3.4 2,5.7 4.9,5.7 2.9,0 4.9,-2.3 4.9,-5.7 0,-3.4 -2,-5.7 -4.9,-5.7 -2.9,0 -4.9,2.3 -4.9,5.7 z m 42.2,11 h -7.1 v -3.7 a 7.79643,7.79643 0 0 1 -7.2,3.9 c -4.8,0 -7.9,-3.3 -7.9,-8.4 v -13.9 h 7.1 v 11.9 c 0,2.6 1.4,4.2 3.7,4.2 2.7,0 4.3,-2.2 4.3,-5.2 v -10.9 h 7.1 z m 27.8,0 h -7.1 v -2.9 a 8.15186,8.15186 0 0 1 -6.6,3.2 c -6.2,0 -10.3,-4.6 -10.3,-11.4 0,-6.7 4,-11.2 10.1,-11.2 a 8.12753,8.12753 0 0 1 6.8,3.2 v -11.2 h 7.1 z m -7,-11 c 0,-3.4 -2,-5.7 -4.9,-5.7 -2.9,0 -4.9,2.3 -4.9,5.7 0,3.4 2,5.8 4.9,5.8 2.9,0 4.9,-2.4 4.9,-5.8 z"
       class="cls-11"
       id="path39" />
    <path
       d="m 428.52,209.02 -13.2,-17.6 v 17.6 h -6.8 v -28.6 h 6.4 l 13.2,17.7 v -17.7 h 6.8 v 28.6 z m 31.6,-14.4 v 14.4 h -6.9 v -2.5 c -1.4,1.9 -3.8,2.9 -6.7,2.9 -4.7,0 -7.6,-2.9 -7.6,-6.9 0,-4.2 3,-6.6 8.5,-6.7 h 5.8 v -0.3 c 0,-2.2 -1.4,-3.5 -4.3,-3.5 a 16.83678,16.83678 0 0 0 -6.6,1.8 l -2,-4.7 a 22.92146,22.92146 0 0 1 10.2,-2.5 c 6.1,0 9.6,3 9.6,8 z m -6.9,6.9 v -2 h -4.5 c -2.1,0 -3.2,0.7 -3.2,2.4 0,1.6 1.1,2.6 3.1,2.6 2.3,0 4.1,-1.2 4.6,-3 z m 26,6.3 a 12.58373,12.58373 0 0 1 -5.9,1.5 c -4.3,0 -7.3,-2.4 -7.3,-7 v -9.7 h -3.1 v -4.6 h 3.1 v -6.1 h 7 v 6.1 h 5.8 v 4.7 h -5.8 v 8.6 c 0,1.7 0.7,2.5 2,2.4 a 8.28258,8.28258 0 0 0 2.7,-0.7 z m 10.8,-27.2 a 3.65445,3.65445 0 0 1 -3.7,3.8 3.75033,3.75033 0 0 1 0,-7.5 3.51679,3.51679 0 0 1 3.7,3.7 z m -7.2,28.4 v -22 h 7 v 22 z m 17.9,0 -8.3,-22 h 7.3 l 4.7,15.6 4.8,-15.6 h 7 l -8.3,22 z m 38.9,-9.1 h -15.5 a 5.14479,5.14479 0 0 0 5.2,4.1 7.85682,7.85682 0 0 0 5.3,-2.2 l 3.7,3.6 a 12.4865,12.4865 0 0 1 -9.6,3.9 c -7.2,0 -11.7,-4.5 -11.7,-11.2 0,-6.8 4.7,-11.3 11.5,-11.3 7.7,-0.1 11.6,5 11.1,13.1 z m -6.8,-3.8 a 4.14947,4.14947 0 0 0 -4.3,-4.5 c -2.5,0 -4.1,1.8 -4.6,4.5 z"
       class="cls-9"
       id="path41" />
    <path
       d="m 568.42,184.92 -4.2,5 a 9.83081,9.83081 0 0 0 -7.2,-3.7 8.03081,8.03081 0 0 0 -8,8.3 c 0,4.8 3.4,8.4 8,8.4 a 10.57471,10.57471 0 0 0 7.2,-3.4 l 4.3,4.5 a 17.50831,17.50831 0 0 1 -11.8,5.2 c -8.6,0 -15,-6.3 -15,-14.7 0,-8.3 6.6,-14.5 15.3,-14.5 a 17.21053,17.21053 0 0 1 11.4,4.9 z m 24.8,13 c 0,6.8 -4.8,11.3 -12,11.3 -7.2,0 -12.1,-4.5 -12.1,-11.3 0,-6.8 4.8,-11.2 12.1,-11.2 7.09994,0 12,4.5 12,11.2 z m -17,0.1 c 0,3.4 2,5.7 4.9,5.7 2.9,0 4.9,-2.3 4.9,-5.7 0,-3.4 -2,-5.7 -4.9,-5.7 -2.9,0 -4.9,2.3 -4.9,5.7 z m 43.3,-2.9 v 13.9 h -7 v -11.9 c 0,-2.6 -1.5,-4.2 -3.9,-4.2 -2.6,0 -4.2,1.8 -4.5,4.5 v 11.7 h -7.1 v -22 h 7.1 v 3.6 a 8.11676,8.11676 0 0 1 7.4,-3.9 c 4.8,-0.2 8,3.1 8,8.3 z"
       class="cls-11"
       id="path43" />
    <g
       class="cls-2"
       id="g50">
      <path
         id="SVGID-3"
         d="m 246.42,13.32 h 1 v 203.5 h -1 z"
         class="cls-3"
         data-name="SVGID" />
      <g
         clip-path="url(#clip-path-3)"
         id="g48">
        <path
           d="m 246.42,13.32 h 1 v 203.5 h -1 z"
           class="cls-3"
           id="path46" />
      </g>
    </g>
    <path
       d="m 242.62,265.52 h -12.8 v -22.2 h 12.8 v 3.9 h -8.1 v 4.9 h 7.5 v 3.9 h -7.5 v 5.7 h 8.1 z m 16.3,0 -0.6,-2.2 h -0.2 a 4.62629,4.62629 0 0 1 -2.1,1.8 7.45484,7.45484 0 0 1 -3.1,0.6 5.76016,5.76016 0 0 1 -4.5,-1.6 6.5339,6.5339 0 0 1 -1.5,-4.6 v -11.1 h 4.6 v 9.9 a 4.65419,4.65419 0 0 0 0.7,2.8 2.33566,2.33566 0 0 0 2.1,0.9 3.05783,3.05783 0 0 0 2.8,-1.3 7.86731,7.86731 0 0 0 0.9,-4.3 v -8 h 4.6 v 17 h -3.7 z m 17.9,-17.3 a 8.08221,8.08221 0 0 1 1.6,0.1 l -0.3,4.3 a 5.21189,5.21189 0 0 0 -1.4,-0.2 5.42433,5.42433 0 0 0 -3.5,1.1 4.22259,4.22259 0 0 0 -1.2,3.2 v 8.6 h -4.7 v -17 h 3.5 l 0.7,2.9 h 0.2 a 5.82762,5.82762 0 0 1 2.1,-2.3 5.14022,5.14022 0 0 1 3,-0.7 z m 20.1,8.8 a 8.99085,8.99085 0 0 1 -2.2,6.5 7.84856,7.84856 0 0 1 -6.1,2.3 8.58294,8.58294 0 0 1 -4.3,-1.1 7.2742,7.2742 0 0 1 -2.9,-3.1 9.87876,9.87876 0 0 1 -1,-4.7 8.99088,8.99088 0 0 1 2.2,-6.5 8.06388,8.06388 0 0 1 6.1,-2.3 8.58284,8.58284 0 0 1 4.3,1.1 7.2742,7.2742 0 0 1 2.9,3.1 11.592,11.592 0 0 1 1,4.7 z m -11.8,0 a 7.41464,7.41464 0 0 0 0.8,3.8 3.45387,3.45387 0 0 0 5.4,0 6.7221,6.7221 0 0 0 0.8,-3.8 7.67951,7.67951 0 0 0 -0.8,-3.8 3.45387,3.45387 0 0 0 -5.4,0 7.67948,7.67948 0 0 0 -0.8,3.8 z m 24.9,8.9 a 5.482,5.482 0 0 1 -4.7,-2.2 h -0.2 a 16.727,16.727 0 0 1 0.2,2.5 v 6.9 h -4.6 v -24.5 h 3.8 l 0.7,2.2 h 0.2 a 5.32526,5.32526 0 0 1 4.8,-2.5 5.56115,5.56115 0 0 1 4.7,2.3 11.15494,11.15494 0 0 1 1.7,6.5 13.19017,13.19017 0 0 1 -0.8,4.7 6.67756,6.67756 0 0 1 -2.3,3.1 6.81829,6.81829 0 0 1 -3.5,1 z m -1.3,-13.9 a 2.97012,2.97012 0 0 0 -2.5,1.1 6.22114,6.22114 0 0 0 -0.8,3.5 v 0.5 a 7.57557,7.57557 0 0 0 0.8,3.9 2.85732,2.85732 0 0 0 2.6,1.2 c 2.1,0 3.1,-1.7 3.1,-5.1 a 7.67952,7.67952 0 0 0 -0.8,-3.8 2.6052,2.6052 0 0 0 -2.4,-1.3 z m 19.4,13.9 a 8.78652,8.78652 0 0 1 -6.4,-2.3 8.627,8.627 0 0 1 -2.3,-6.4 9.68237,9.68237 0 0 1 2.1,-6.6 7.40807,7.40807 0 0 1 5.9,-2.3 7.31471,7.31471 0 0 1 5.6,2.1 8.07089,8.07089 0 0 1 2,5.7 v 2.2 h -11 a 4.5669,4.5669 0 0 0 1.2,3.1 4.33131,4.33131 0 0 0 3.1,1.1 13.57535,13.57535 0 0 0 2.9,-0.3 20.04459,20.04459 0 0 0 2.9,-1 v 3.6 a 11.42357,11.42357 0 0 1 -2.6,0.9 32.80779,32.80779 0 0 1 -3.4,0.2 z m -0.7,-14.4 a 2.86924,2.86924 0 0 0 -2.3,0.9 4.16774,4.16774 0 0 0 -1,2.7 h 6.5 a 4.00228,4.00228 0 0 0 -0.9,-2.7 3.23864,3.23864 0 0 0 -2.3,-0.9 z m 32.912,13.8423 h -15.41989 v -3.24414 l 5.53711,-5.59765 q 2.45947,-2.51953 3.21387,-3.49219 a 7.66442,7.66442 0 0 0 1.08593,-1.80371 4.57823,4.57823 0 0 0 0.332,-1.71973 2.50876,2.50876 0 0 0 -0.73144,-1.97656 2.83862,2.83862 0 0 0 -1.9541,-0.64844 5.62779,5.62779 0 0 0 -2.48926,0.58789 12.88415,12.88415 0 0 0 -2.51953,1.67481 l -2.53516,-3.002 a 16.51069,16.51069 0 0 1 2.70117,-1.96191 9.96052,9.96052 0 0 1 2.33789,-0.88281 12.00109,12.00109 0 0 1 2.83692,-0.3086 8.401,8.401 0 0 1 3.65137,0.75391 5.82471,5.82471 0 0 1 2.459,2.11231 5.61485,5.61485 0 0 1 0.875,3.10839 7.62357,7.62357 0 0 1 -0.53516,2.85938 10.98217,10.98217 0 0 1 -1.66015,2.73828 40.4863,40.4863 0 0 1 -3.96,3.998 l -2.83692,2.6709 v 0.21093 h 9.61135 z m 17.51663,-11.0293 q 0,5.77881 -1.89355,8.55469 a 6.57082,6.57082 0 0 1 -5.83106,2.77636 6.49349,6.49349 0 0 1 -5.75586,-2.86621 q -1.93944,-2.86669 -1.93945,-8.46484 0,-5.83887 1.88672,-8.60742 a 7.3337,7.3337 0 0 1 11.5791,0.12793 q 1.95411,2.89749 1.9541,8.47949 z m -10.78808,0 a 17.15644,17.15644 0 0 0 0.70215,5.8164 2.42982,2.42982 0 0 0 2.36132,1.75782 2.45465,2.45465 0 0 0 2.35352,-1.78028 23.55211,23.55211 0 0 0 -0.008,-11.625 2.44321,2.44321 0 0 0 -4.69922,0 17.1,17.1 0 0 0 -0.70996,5.83106 z m 28.54687,11.0293 H 380.1875 v -3.24414 l 5.53711,-5.59765 q 2.45947,-2.51953 3.21387,-3.49219 a 7.66442,7.66442 0 0 0 1.08593,-1.80371 4.57824,4.57824 0 0 0 0.332,-1.71973 2.50877,2.50877 0 0 0 -0.73145,-1.97656 2.83862,2.83862 0 0 0 -1.9541,-0.64844 5.62779,5.62779 0 0 0 -2.48926,0.58789 12.88415,12.88415 0 0 0 -2.51953,1.67481 l -2.53516,-3.002 a 16.51069,16.51069 0 0 1 2.70117,-1.96191 9.96043,9.96043 0 0 1 2.3379,-0.88281 12.001,12.001 0 0 1 2.83691,-0.3086 8.401,8.401 0 0 1 3.65137,0.75391 5.82471,5.82471 0 0 1 2.459,2.11231 5.61485,5.61485 0 0 1 0.875,3.10839 7.62357,7.62357 0 0 1 -0.53516,2.85938 10.98217,10.98217 0 0 1 -1.66015,2.73828 40.48514,40.48514 0 0 1 -3.96,3.998 l -2.83692,2.6709 v 0.21093 h 9.61133 z M 413.124,254.333 q 0,5.77881 -1.89355,8.55469 a 6.57082,6.57082 0 0 1 -5.83106,2.77636 6.49349,6.49349 0 0 1 -5.75586,-2.86621 q -1.93944,-2.86669 -1.93945,-8.46484 0,-5.83887 1.88672,-8.60742 a 7.3337,7.3337 0 0 1 11.5791,0.12793 q 1.9541,2.89749 1.9541,8.47949 z m -10.78808,0 a 17.15644,17.15644 0 0 0 0.70215,5.8164 2.42982,2.42982 0 0 0 2.36132,1.75782 2.45465,2.45465 0 0 0 2.35352,-1.78028 23.55211,23.55211 0 0 0 -0.008,-11.625 2.44321,2.44321 0 0 0 -4.69922,0 17.1,17.1 0 0 0 -0.70994,5.83106 z"
       class="cls-3"
       id="path52" />
  </g>
</svg>
