<?xml version="1.0" encoding="UTF-8" standalone="no"?>
<svg
   xmlns:dc="http://purl.org/dc/elements/1.1/"
   xmlns:cc="http://creativecommons.org/ns#"
   xmlns:rdf="http://www.w3.org/1999/02/22-rdf-syntax-ns#"
   xmlns:svg="http://www.w3.org/2000/svg"
   xmlns="http://www.w3.org/2000/svg"
   xmlns:sodipodi="http://sodipodi.sourceforge.net/DTD/sodipodi-0.dtd"
   xmlns:inkscape="http://www.inkscape.org/namespaces/inkscape"
   inkscape:version="1.0 (4035a4fb49, 2020-05-01)"
   height="100"
   width="103.05"
   sodipodi:docname="kubernetes.svg"
   id="svg14"
   version="1.1"
   viewBox="-0.17 0.08 103.05 99.999997"
   role="img">
  <metadata
     id="metadata18">
    <rdf:RDF>
      <cc:Work
         rdf:about="">
        <dc:format>image/svg+xml</dc:format>
        <dc:type
           rdf:resource="http://purl.org/dc/dcmitype/StillImage" />
        <dc:title></dc:title>
      </cc:Work>
    </rdf:RDF>
  </metadata>
  <sodipodi:namedview
     inkscape:current-layer="svg14"
     inkscape:window-maximized="0"
     inkscape:window-y="21"
     inkscape:window-x="125"
     inkscape:cy="68.810033"
     inkscape:cx="64.817894"
     inkscape:zoom="5.6568543"
     showgrid="false"
     id="namedview16"
     inkscape:window-height="1046"
     inkscape:window-width="1665"
     inkscape:pageshadow="2"
     inkscape:pageopacity="0"
     guidetolerance="10"
     gridtolerance="10"
     objecttolerance="10"
     borderopacity="1"
     bordercolor="#666666"
     pagecolor="#ffffff" />
  <defs
     id="defs4">
    <style
       id="style2">.cls-1{fill:#fff}.cls-2{fill:#326ce5}</style>
  </defs>
  <g
     transform="matrix(0.50813,0,0,0.50813,-7.1558901,-6.741209)"
     id="g23">
    <path
       d="m 134.358,126.466 a 3.59,3.59 0 0 0 -0.855,-0.065 3.685,3.685 0 0 0 -1.425,0.37 3.725,3.725 0 0 0 -1.803,4.825 l -0.026,0.037 8.528,20.603 a 43.53,43.53 0 0 0 17.595,-22.102 l -21.976,-3.714 z m -34.194,2.92 a 3.72,3.72 0 0 0 -3.568,-2.894 3.656,3.656 0 0 0 -0.733,0.065 l -0.037,-0.045 -21.785,3.698 a 43.695,43.695 0 0 0 17.54,21.946 l 8.442,-20.4 -0.066,-0.08 a 3.683,3.683 0 0 0 0.207,-2.29 z m 18.245,8 a 3.718,3.718 0 0 0 -6.557,0.008 h -0.018 l -10.713,19.372 a 43.637,43.637 0 0 0 23.815,1.225 q 2.197,-0.5 4.292,-1.2 L 118.49,137.385 Z m 33.914,-45 -16.483,14.753 0.009,0.047 a 3.725,3.725 0 0 0 1.46,6.395 l 0.02,0.089 21.35,6.15 A 44.278,44.278 0 0 0 152.323,92.388 Z M 121.7,94.039 a 3.725,3.725 0 0 0 5.913,2.84 l 0.065,0.027 18.036,-12.788 a 43.85,43.85 0 0 0 -25.287,-12.19 l 1.253,22.105 z m -19.1,2.921 a 3.72,3.72 0 0 0 5.904,-2.85 l 0.092,-0.043 1.253,-22.14 a 44.682,44.682 0 0 0 -4.501,0.776 43.467,43.467 0 0 0 -20.937,11.409 l 18.154,12.869 z m -9.678,16.729 a 3.72,3.72 0 0 0 1.462,-6.396 l 0.018,-0.088 -16.574,-14.824 a 43.454,43.454 0 0 0 -6.168,27.51 l 21.245,-6.13 z m 16.098,6.512 6.114,2.94 6.096,-2.934 1.514,-6.581 -4.219,-5.276 h -6.79 l -4.231,5.268 z"
       class="cls-2"
       id="path6" />
    <path
       d="M 216.208,133.167 198.786,57.492 a 13.602,13.602 0 0 0 -7.293,-9.073 l -70.521,-33.67 a 13.589,13.589 0 0 0 -11.705,0 L 38.76,48.437 a 13.598,13.598 0 0 0 -7.295,9.072 l -17.394,75.673 a 13.315,13.315 0 0 0 -0.004,5.81 13.506,13.506 0 0 0 0.491,1.718 13.1,13.1 0 0 0 1.343,2.726 c 0.239,0.365 0.491,0.72 0.765,1.064 l 48.804,60.678 c 0.213,0.264 0.448,0.505 0.681,0.75 a 13.423,13.423 0 0 0 2.574,2.133 13.924,13.924 0 0 0 3.857,1.677 13.298,13.298 0 0 0 3.43,0.473 h 0.759 l 77.504,-0.018 a 12.993,12.993 0 0 0 1.41,-0.083 13.47,13.47 0 0 0 1.989,-0.378 13.872,13.872 0 0 0 1.381,-0.442 c 0.353,-0.135 0.705,-0.27 1.045,-0.433 a 13.941,13.941 0 0 0 1.479,-0.822 13.303,13.303 0 0 0 3.237,-2.865 l 1.488,-1.85 47.299,-58.84 a 13.185,13.185 0 0 0 2.108,-3.785 13.67,13.67 0 0 0 0.5,-1.724 13.282,13.282 0 0 0 -0.004,-5.81 z m -73.147,29.432 a 14.516,14.516 0 0 0 0.703,1.703 3.314,3.314 0 0 0 -0.327,2.49 39.372,39.372 0 0 0 3.742,6.7 35.06,35.06 0 0 1 2.263,3.364 c 0.17,0.315 0.392,0.803 0.553,1.136 a 4.24,4.24 0 1 1 -7.63,3.607 c -0.161,-0.33 -0.385,-0.77 -0.522,-1.082 a 35.275,35.275 0 0 1 -1.225,-3.868 39.305,39.305 0 0 0 -2.896,-7.097 3.335,3.335 0 0 0 -2.154,-1.307 c -0.135,-0.233 -0.635,-1.15 -0.903,-1.623 a 54.617,54.617 0 0 1 -38.948,-0.1 l -0.955,1.73 a 3.429,3.429 0 0 0 -1.819,0.887 29.517,29.517 0 0 0 -3.268,7.582 34.9,34.9 0 0 1 -1.218,3.868 c -0.135,0.31 -0.361,0.744 -0.522,1.073 v 0.009 l -0.007,0.008 a 4.238,4.238 0 1 1 -7.619,-3.616 c 0.159,-0.335 0.372,-0.82 0.54,-1.135 a 35.177,35.177 0 0 1 2.262,-3.373 41.228,41.228 0 0 0 3.82,-6.866 4.188,4.188 0 0 0 -0.376,-2.387 l 0.768,-1.84 A 54.922,54.922 0 0 1 62.985,132.075 l -1.839,0.313 a 4.68,4.68 0 0 0 -2.428,-0.855 39.524,39.524 0 0 0 -7.356,2.165 35.589,35.589 0 0 1 -3.787,1.45 c -0.305,0.084 -0.745,0.168 -1.093,0.244 -0.028,0.01 -0.052,0.022 -0.08,0.029 a 0.605,0.605 0 0 1 -0.065,0.006 4.236,4.236 0 1 1 -1.874,-8.224 l 0.061,-0.015 0.037,-0.01 c 0.353,-0.083 0.805,-0.2 1.127,-0.262 a 35.27,35.27 0 0 1 4.05,-0.326 39.388,39.388 0 0 0 7.564,-1.242 5.835,5.835 0 0 0 1.814,-1.83 l 1.767,-0.516 a 54.613,54.613 0 0 1 8.613,-38.073 l -1.353,-1.206 a 4.688,4.688 0 0 0 -0.848,-2.436 39.366,39.366 0 0 0 -6.277,-4.41 35.25,35.25 0 0 1 -3.499,-2.046 C 57.263,74.64 56.923,74.353 56.645,74.127 l -0.063,-0.044 a 4.473,4.473 0 0 1 -1.038,-6.222 4.066,4.066 0 0 1 3.363,-1.488 5.03,5.03 0 0 1 2.942,1.11 c 0.287,0.225 0.68,0.526 0.935,0.745 a 35.253,35.253 0 0 1 2.78,2.95 39.383,39.383 0 0 0 5.69,5.142 3.333,3.333 0 0 0 2.507,0.243 q 0.754,0.55 1.522,1.082 a 54.289,54.289 0 0 1 27.577,-15.755 55.052,55.052 0 0 1 7.63,-1.173 l 0.1,-1.784 a 4.6,4.6 0 0 0 1.37,-2.184 39.476,39.476 0 0 0 -0.47,-7.654 35.466,35.466 0 0 1 -0.576,-4.014 c -0.011,-0.307 0.006,-0.731 0.01,-1.081 0,-0.04 -0.01,-0.08 -0.01,-0.118 a 4.242,4.242 0 1 1 8.441,-0.004 c 0,0.37 0.022,0.86 0.009,1.2 a 35.109,35.109 0 0 1 -0.579,4.013 39.533,39.533 0 0 0 -0.478,7.656 3.344,3.344 0 0 0 1.379,2.11 c 0.015,0.305 0.065,1.323 0.102,1.884 a 55.309,55.309 0 0 1 35.032,16.927 l 1.606,-1.147 a 4.69,4.69 0 0 0 2.56,-0.278 39.532,39.532 0 0 0 5.69,-5.148 35.004,35.004 0 0 1 2.787,-2.95 c 0.259,-0.222 0.65,-0.52 0.936,-0.746 a 4.242,4.242 0 1 1 5.258,6.598 c -0.283,0.229 -0.657,0.548 -0.929,0.75 a 35.095,35.095 0 0 1 -3.507,2.046 39.495,39.495 0 0 0 -6.277,4.41 3.337,3.337 0 0 0 -0.792,2.39 c -0.235,0.216 -1.06,0.947 -1.497,1.343 a 54.837,54.837 0 0 1 8.792,37.983 l 1.704,0.496 a 4.745,4.745 0 0 0 1.82,1.83 39.464,39.464 0 0 0 7.568,1.246 35.64,35.64 0 0 1 4.046,0.324 c 0.355,0.065 0.868,0.207 1.23,0.29 a 4.236,4.236 0 1 1 -1.878,8.223 l -0.061,-0.008 c -0.028,-0.007 -0.054,-0.022 -0.083,-0.03 -0.348,-0.075 -0.785,-0.151 -1.09,-0.231 a 35.14,35.14 0 0 1 -3.785,-1.462 39.477,39.477 0 0 0 -7.363,-2.165 3.337,3.337 0 0 0 -2.362,0.877 q -0.9,-0.171 -1.804,-0.316 a 54.92,54.92 0 0 1 -24.328,30.605 z"
       class="cls-2"
       id="path8" />
    <path
       d="m 185.814,127.106 c -0.36,-0.083 -0.874,-0.225 -1.227,-0.29 a 35.642,35.642 0 0 0 -4.046,-0.326 39.464,39.464 0 0 1 -7.57,-1.242 4.745,4.745 0 0 1 -1.82,-1.832 l -1.704,-0.496 a 54.837,54.837 0 0 0 -8.79,-37.983 c 0.436,-0.396 1.262,-1.127 1.495,-1.342 a 3.338,3.338 0 0 1 0.792,-2.39 39.495,39.495 0 0 1 6.277,-4.41 35.095,35.095 0 0 0 3.507,-2.046 c 0.272,-0.202 0.644,-0.522 0.929,-0.75 a 4.242,4.242 0 1 0 -5.256,-6.6 c -0.288,0.227 -0.68,0.525 -0.936,0.747 a 35.004,35.004 0 0 0 -2.789,2.95 39.533,39.533 0 0 1 -5.69,5.148 4.69,4.69 0 0 1 -2.56,0.278 l -1.606,1.147 A 55.309,55.309 0 0 0 119.788,60.742 c -0.039,-0.561 -0.087,-1.577 -0.102,-1.884 a 3.344,3.344 0 0 1 -1.377,-2.11 39.533,39.533 0 0 1 0.478,-7.656 35.112,35.112 0 0 0 0.575,-4.012 c 0.013,-0.34 -0.007,-0.834 -0.007,-1.201 a 4.242,4.242 0 1 0 -8.441,0.004 c 0,0.04 0.009,0.078 0.01,0.118 -0.004,0.35 -0.021,0.774 -0.01,1.08 a 35.476,35.476 0 0 0 0.576,4.015 39.475,39.475 0 0 1 0.47,7.654 4.601,4.601 0 0 1 -1.37,2.182 l -0.1,1.786 a 55.052,55.052 0 0 0 -7.63,1.173 54.289,54.289 0 0 0 -27.574,15.754 q -0.77,-0.531 -1.526,-1.082 a 3.333,3.333 0 0 1 -2.506,-0.243 39.383,39.383 0 0 1 -5.69,-5.141 35.255,35.255 0 0 0 -2.777,-2.95 c -0.257,-0.22 -0.65,-0.52 -0.938,-0.75 a 5.03,5.03 0 0 0 -2.942,-1.11 4.066,4.066 0 0 0 -3.363,1.49 4.473,4.473 0 0 0 1.038,6.222 l 0.065,0.046 c 0.276,0.226 0.616,0.515 0.872,0.702 a 35.256,35.256 0 0 0 3.499,2.048 39.367,39.367 0 0 1 6.276,4.412 4.69,4.69 0 0 1 0.849,2.434 l 1.351,1.208 a 54.613,54.613 0 0 0 -8.611,38.073 l -1.767,0.514 a 5.835,5.835 0 0 1 -1.814,1.827 39.39,39.39 0 0 1 -7.565,1.247 35.266,35.266 0 0 0 -4.049,0.326 c -0.324,0.06 -0.774,0.174 -1.127,0.262 l -0.037,0.008 -0.06,0.018 a 4.236,4.236 0 1 0 1.875,8.224 l 0.063,-0.01 c 0.028,-0.006 0.052,-0.02 0.08,-0.025 0.348,-0.08 0.786,-0.163 1.092,-0.246 a 35.59,35.59 0 0 0 3.786,-1.451 39.527,39.527 0 0 1 7.358,-2.165 4.68,4.68 0 0 1 2.426,0.857 l 1.84,-0.315 a 54.922,54.922 0 0 0 24.34,30.387 l -0.769,1.84 a 4.188,4.188 0 0 1 0.377,2.387 41.228,41.228 0 0 1 -3.82,6.864 35.183,35.183 0 0 0 -2.263,3.372 c -0.168,0.318 -0.381,0.805 -0.542,1.138 a 4.238,4.238 0 1 0 7.621,3.616 l 0.007,-0.008 v -0.01 c 0.16,-0.33 0.387,-0.763 0.522,-1.072 a 34.903,34.903 0 0 0 1.218,-3.868 29.517,29.517 0 0 1 3.268,-7.582 3.43,3.43 0 0 1 1.819,-0.888 l 0.957,-1.73 a 54.617,54.617 0 0 0 38.946,0.099 c 0.268,0.478 0.768,1.392 0.9,1.623 a 3.335,3.335 0 0 1 2.155,1.31 39.306,39.306 0 0 1 2.898,7.096 35.275,35.275 0 0 0 1.225,3.868 c 0.137,0.312 0.36,0.75 0.522,1.082 a 4.24,4.24 0 1 0 7.63,-3.607 c -0.161,-0.333 -0.383,-0.82 -0.55,-1.136 a 35.06,35.06 0 0 0 -2.263,-3.364 39.372,39.372 0 0 1 -3.742,-6.7 3.314,3.314 0 0 1 0.324,-2.49 14.519,14.519 0 0 1 -0.703,-1.703 54.92,54.92 0 0 0 24.328,-30.605 c 0.546,0.087 1.497,0.253 1.806,0.316 a 3.337,3.337 0 0 1 2.36,-0.877 39.476,39.476 0 0 1 7.36,2.165 35.135,35.135 0 0 0 3.788,1.462 c 0.305,0.08 0.74,0.156 1.09,0.233 0.029,0.008 0.055,0.02 0.083,0.028 l 0.06,0.009 a 4.236,4.236 0 1 0 1.878,-8.224 z m -40.1,-42.987 -18.037,12.787 -0.063,-0.03 a 3.723,3.723 0 0 1 -5.913,-2.838 l -0.02,-0.01 -1.253,-22.103 a 43.85,43.85 0 0 1 25.285,12.194 z m -33.978,24.228 h 6.788 l 4.22,5.276 -1.513,6.58 -6.096,2.934 -6.114,-2.94 -1.516,-6.583 z M 105.35,72.699 a 44.672,44.672 0 0 1 4.503,-0.774 l -1.255,22.137 -0.092,0.044 a 3.72,3.72 0 0 1 -5.904,2.852 l -0.035,0.02 L 84.413,84.106 A 43.467,43.467 0 0 1 105.35,72.699 Z m -27.52,19.68 16.574,14.824 -0.018,0.09 a 3.72,3.72 0 0 1 -1.462,6.395 l -0.017,0.072 -21.245,6.13 A 43.454,43.454 0 0 1 77.83,92.38 Z m 22.191,39.38 -8.441,20.397 A 43.696,43.696 0 0 1 74.044,130.208 l 21.783,-3.7 0.037,0.049 a 3.655,3.655 0 0 1 0.73,-0.065 3.72,3.72 0 0 1 3.364,5.185 z m 24.916,26.23 a 43.637,43.637 0 0 1 -23.815,-1.223 l 10.713,-19.372 h 0.018 a 3.725,3.725 0 0 1 6.557,-0.006 h 0.08 l 10.74,19.404 q -2.091,0.698 -4.293,1.199 z m 13.841,-5.751 -8.528,-20.605 0.026,-0.037 a 3.725,3.725 0 0 1 1.803,-4.823 3.685,3.685 0 0 1 1.425,-0.37 3.59,3.59 0 0 1 0.855,0.063 l 0.037,-0.046 21.977,3.714 a 43.53,43.53 0 0 1 -17.595,22.105 z m 19.903,-32.42 -21.352,-6.15 -0.02,-0.09 a 3.725,3.725 0 0 1 -1.46,-6.395 l -0.008,-0.043 16.482,-14.751 a 44.279,44.279 0 0 1 6.357,27.43 z"
       class="cls-1"
       id="path12" />
  </g>
</svg>
