<?xml version="1.0" encoding="UTF-8" standalone="no"?>
<svg
   xmlns:dc="http://purl.org/dc/elements/1.1/"
   xmlns:cc="http://creativecommons.org/ns#"
   xmlns:rdf="http://www.w3.org/1999/02/22-rdf-syntax-ns#"
   xmlns:svg="http://www.w3.org/2000/svg"
   xmlns="http://www.w3.org/2000/svg"
   version="1.1"
   id="svg2"
   xml:space="preserve"
   width="430"
   height="155"
   viewBox="0 0 430 155"><metadata
     id="metadata8"><rdf:RDF><cc:Work
         rdf:about=""><dc:format>image/svg+xml</dc:format><dc:type
           rdf:resource="http://purl.org/dc/dcmitype/StillImage" /><dc:title></dc:title></cc:Work></rdf:RDF></metadata><defs
     id="defs6"><clipPath
       clipPathUnits="userSpaceOnUse"
       id="clipPath22"><path
         d="M 0,171.851 H 378.894 V 0 H 0 Z"
         id="path20" /></clipPath></defs><g
     id="g10"
     transform="matrix(1.3333333,0,0,-1.3333333,9.9893814,144.98602)"><g
       id="g935"
       transform="translate(-51.858118,-48.141121)"><g
         transform="translate(353.5637,91.0531)"
         id="g12"><path
           id="path14"
           style="fill:#254f24;fill-opacity:1;fill-rule:evenodd;stroke:none"
           d="M 0,0 -204.06,-0.101 V -2.209 L 0,-2.103 Z" /></g><g
         id="g16"><g
           clip-path="url(#clipPath22)"
           id="g18"><g
             transform="translate(98.9187,138.4428)"
             id="g24"><path
               id="path26"
               style="fill:#3fab3c;fill-opacity:1;fill-rule:nonzero;stroke:none"
               d="m 0,0 c -23.857,0 -43.254,-19.411 -43.254,-43.286 0,-23.874 19.397,-43.28 43.254,-43.28 23.862,0 43.258,19.406 43.258,43.28 C 43.258,-19.411 23.862,0 0,0 m 0,-4.905 c 21.212,0 38.358,-17.155 38.358,-38.381 0,-21.225 -17.146,-38.38 -38.358,-38.38 -21.207,0 -38.348,17.155 -38.348,38.38 0,21.226 17.141,38.381 38.348,38.381" /></g><g
             transform="translate(165.8542,75.7826)"
             id="g28"><path
               id="path30"
               style="fill:#254f24;fill-opacity:1;fill-rule:nonzero;stroke:none"
               d="m 0,0 c -2.29,1.989 -4.907,3.515 -8.013,3.515 -3.598,0 -6.46,-2.118 -6.46,-4.955 0,-3.006 2.902,-4.32 8.095,-5.632 5.192,-1.314 8.136,-3.684 8.136,-7.707 0,-5.293 -4.334,-8.808 -10.18,-8.808 -2.944,0 -5.806,0.847 -9.077,3.176 v 3.768 c 2.331,-2.286 5.806,-4.234 9.118,-4.234 3.802,0 6.991,2.287 6.991,5.717 0,2.964 -2.331,4.616 -7.36,5.801 -4.824,1.144 -8.708,3.175 -8.708,7.708 0,4.658 4.129,7.876 9.445,7.876 2.657,0 5.233,-0.804 8.013,-2.498 z" /></g><g
             transform="translate(193.6164,67.059)"
             id="g32"><path
               id="path34"
               style="fill:#254f24;fill-opacity:1;fill-rule:nonzero;stroke:none"
               d="m 0,0 c 0,6.86 -4.129,12.238 -9.403,12.238 -5.275,0 -9.363,-5.463 -9.363,-12.323 0,-7.198 4.374,-12.068 9.24,-12.068 C -4.333,-12.153 0,-6.944 0,0 m -9.117,-14.863 c -6.297,0 -12.634,5.547 -12.634,14.651 0,8.596 5.397,15.16 12.429,15.16 6.705,0 12.307,-6.266 12.307,-14.948 0,-9.316 -6.501,-14.863 -12.102,-14.863" /></g><g
             transform="translate(205.0656,81.5414)"
             id="g36"><path
               id="path38"
               style="fill:#254f24;fill-opacity:1;fill-rule:nonzero;stroke:none"
               d="m 0,0 v -26.34 h 14.433 v -2.54 H -2.78 V 0 Z" /></g><g
             transform="translate(224.4045,81.5414)"
             id="g40"><path
               id="path42"
               style="fill:#254f24;fill-opacity:1;fill-rule:nonzero;stroke:none"
               d="m 0,0 v -18.886 c 0,-4.574 2.331,-7.75 6.87,-7.75 4.578,0 7.276,2.88 7.276,6.945 V 0 h 2.945 v -19.903 c 0,-6.013 -4.089,-9.443 -10.14,-9.443 -6.664,0 -9.73,3.98 -9.73,10.756 V 0 Z" /></g><g
             transform="translate(265.7414,81.5414)"
             id="g44"><path
               id="path46"
               style="fill:#254f24;fill-opacity:1;fill-rule:nonzero;stroke:none"
               d="m 0,0 v -2.54 h -8.667 v -26.34 h -2.781 v 26.34 h -8.667 V 0 Z" /></g><path
             id="path48"
             style="fill:#254f24;fill-opacity:1;fill-rule:nonzero;stroke:none"
             d="m 273.307,52.662 h -2.78 v 28.88 h 2.78 z" /><g
             transform="translate(300.9865,67.059)"
             id="g50"><path
               id="path52"
               style="fill:#254f24;fill-opacity:1;fill-rule:nonzero;stroke:none"
               d="m 0,0 c 0,6.86 -4.13,12.238 -9.403,12.238 -5.275,0 -9.364,-5.463 -9.364,-12.323 0,-7.198 4.375,-12.068 9.241,-12.068 C -4.335,-12.153 0,-6.944 0,0 m -9.118,-14.863 c -6.296,0 -12.633,5.547 -12.633,14.651 0,8.596 5.397,15.16 12.43,15.16 6.705,0 12.305,-6.266 12.305,-14.948 0,-9.316 -6.501,-14.863 -12.102,-14.863" /></g><g
             transform="translate(309.9006,81.5414)"
             id="g54"><path
               id="path56"
               style="fill:#254f24;fill-opacity:1;fill-rule:nonzero;stroke:none"
               d="m 0,0 h 2.535 l 10.59,-16.938 c 0.449,-0.763 2.33,-3.981 4.619,-8.216 h 0.245 c -0.245,3.303 -0.408,7.496 -0.408,9.274 V 0 h 2.575 v -28.88 h -2.575 l -7.114,11.391 C 7.604,-12.873 4.62,-8.215 2.535,-3.77 H 2.168 C 2.29,-5.929 2.535,-8.894 2.535,-10.968 V -28.88 H 0 Z" /></g><g
             transform="translate(353.5276,75.7826)"
             id="g58"><path
               id="path60"
               style="fill:#254f24;fill-opacity:1;fill-rule:nonzero;stroke:none"
               d="m 0,0 c -2.29,1.989 -4.907,3.515 -8.015,3.515 -3.597,0 -6.46,-2.118 -6.46,-4.955 0,-3.006 2.904,-4.32 8.096,-5.632 5.192,-1.314 8.136,-3.684 8.136,-7.707 0,-5.293 -4.334,-8.808 -10.18,-8.808 -2.944,0 -5.806,0.847 -9.077,3.176 v 3.768 c 2.33,-2.286 5.807,-4.234 9.118,-4.234 3.802,0 6.99,2.287 6.99,5.717 0,2.964 -2.33,4.616 -7.358,5.801 -4.825,1.144 -8.709,3.175 -8.709,7.708 0,4.658 4.129,7.876 9.444,7.876 2.659,0 5.234,-0.804 8.015,-2.498 z" /></g><g
             transform="translate(172.9675,117.9862)"
             id="g62"><path
               id="path64"
               style="fill:#254f24;fill-opacity:1;fill-rule:nonzero;stroke:none"
               d="m 0,0 c 0,1.564 -0.123,3.004 -0.369,4.32 -0.246,1.316 -0.663,2.459 -1.248,3.431 -0.587,0.972 -1.366,1.73 -2.339,2.276 -0.972,0.545 -2.197,0.818 -3.674,0.818 -1.313,0 -2.461,-0.243 -3.445,-0.729 C -12.06,9.63 -12.869,8.919 -13.501,7.982 -14.134,7.045 -14.609,5.92 -14.925,4.604 -15.242,3.289 -15.4,1.79 -15.4,0.106 c 0,-1.564 0.129,-3.004 0.387,-4.319 0.258,-1.316 0.673,-2.46 1.248,-3.432 0.574,-0.972 1.353,-1.724 2.338,-2.257 0.985,-0.534 2.203,-0.801 3.656,-0.801 1.337,0 2.497,0.244 3.481,0.729 0.985,0.486 1.793,1.191 2.426,2.116 0.634,0.924 1.102,2.045 1.407,3.36 C -0.153,-3.182 0,-1.684 0,0 m 9.106,0.355 c 0,-2.702 -0.351,-5.167 -1.054,-7.395 -0.704,-2.229 -1.771,-4.148 -3.2,-5.76 -1.43,-1.613 -3.223,-2.857 -5.379,-3.734 -2.158,-0.877 -4.677,-1.316 -7.56,-1.316 -2.789,0 -5.216,0.392 -7.278,1.174 -2.063,0.782 -3.774,1.92 -5.133,3.413 -1.36,1.493 -2.368,3.33 -3.024,5.512 -0.656,2.18 -0.984,4.669 -0.984,7.466 0,2.703 0.357,5.174 1.072,7.414 0.715,2.24 1.787,4.16 3.217,5.76 1.429,1.6 3.217,2.839 5.362,3.716 2.145,0.876 4.659,1.316 7.542,1.316 2.813,0 5.25,-0.386 7.313,-1.156 2.062,-0.77 3.768,-1.902 5.116,-3.396 C 6.463,11.876 7.465,10.039 8.122,7.858 8.778,5.677 9.106,3.176 9.106,0.355" /></g><g
             transform="translate(208.594,130.9291)"
             id="g66"><path
               id="path68"
               style="fill:#254f24;fill-opacity:1;fill-rule:nonzero;stroke:none"
               d="m 0,0 c 0,-0.854 -0.023,-1.553 -0.07,-2.098 -0.047,-0.546 -0.117,-0.972 -0.211,-1.28 -0.094,-0.308 -0.218,-0.521 -0.37,-0.64 -0.153,-0.119 -0.345,-0.178 -0.579,-0.178 -0.188,0 -0.399,0.041 -0.633,0.125 -0.236,0.083 -0.499,0.172 -0.791,0.266 -0.294,0.095 -0.617,0.183 -0.968,0.267 -0.352,0.083 -0.738,0.124 -1.16,0.124 -0.492,0 -0.985,-0.101 -1.477,-0.302 -0.492,-0.201 -1.002,-0.515 -1.529,-0.942 -0.527,-0.427 -1.078,-0.996 -1.653,-1.707 -0.575,-0.711 -1.19,-1.588 -1.846,-2.631 v -19.77 c 0,-0.237 -0.07,-0.444 -0.211,-0.622 -0.14,-0.178 -0.381,-0.326 -0.72,-0.445 -0.34,-0.119 -0.791,-0.207 -1.354,-0.266 -0.563,-0.059 -1.278,-0.089 -2.145,-0.089 -0.867,0 -1.582,0.03 -2.144,0.089 -0.563,0.059 -1.015,0.147 -1.354,0.266 -0.34,0.119 -0.58,0.267 -0.721,0.445 -0.141,0.178 -0.211,0.385 -0.211,0.622 V 2.951 c 0,0.237 0.058,0.445 0.176,0.622 0.117,0.178 0.328,0.326 0.633,0.445 0.304,0.118 0.697,0.207 1.178,0.267 0.48,0.058 1.084,0.089 1.81,0.089 0.75,0 1.371,-0.031 1.864,-0.089 0.492,-0.06 0.873,-0.149 1.143,-0.267 0.269,-0.119 0.462,-0.267 0.58,-0.445 0.117,-0.177 0.176,-0.385 0.176,-0.622 v -3.947 c 0.82,1.185 1.593,2.163 2.32,2.933 0.726,0.771 1.418,1.381 2.075,1.832 0.655,0.45 1.312,0.764 1.968,0.942 0.657,0.178 1.313,0.267 1.969,0.267 0.305,0 0.633,-0.018 0.984,-0.054 C -2.919,4.889 -2.556,4.83 -2.181,4.747 -1.805,4.663 -1.477,4.569 -1.195,4.462 -0.914,4.355 -0.71,4.243 -0.581,4.125 -0.452,4.005 -0.358,3.875 -0.3,3.733 -0.241,3.591 -0.187,3.396 -0.141,3.146 -0.094,2.898 -0.059,2.524 -0.035,2.026 -0.012,1.529 0,0.853 0,0" /></g><g
             transform="translate(223.2795,102.1635)"
             id="g70"><path
               id="path72"
               style="fill:#254f24;fill-opacity:1;fill-rule:nonzero;stroke:none"
               d="m 0,0 c 0,-0.237 -0.07,-0.444 -0.211,-0.622 -0.141,-0.178 -0.381,-0.326 -0.72,-0.445 -0.341,-0.119 -0.792,-0.207 -1.354,-0.266 -0.563,-0.059 -1.278,-0.089 -2.145,-0.089 -0.867,0 -1.582,0.03 -2.145,0.089 -0.563,0.059 -1.014,0.147 -1.354,0.266 -0.34,0.119 -0.58,0.267 -0.72,0.445 C -8.79,-0.444 -8.86,-0.237 -8.86,0 v 31.646 c 0,0.236 0.07,0.444 0.211,0.622 0.14,0.178 0.38,0.332 0.72,0.462 0.34,0.13 0.791,0.231 1.354,0.302 0.563,0.072 1.278,0.107 2.145,0.107 0.867,0 1.582,-0.035 2.145,-0.107 0.562,-0.071 1.013,-0.172 1.354,-0.302 0.339,-0.13 0.579,-0.284 0.72,-0.462 C -0.07,32.09 0,31.882 0,31.646 Z m 0.668,42.455 c 0,-1.802 -0.363,-3.046 -1.09,-3.734 -0.726,-0.688 -2.074,-1.031 -4.043,-1.031 -1.993,0 -3.335,0.332 -4.026,0.996 -0.692,0.663 -1.037,1.86 -1.037,3.591 0,1.801 0.357,3.052 1.073,3.751 0.714,0.699 2.067,1.049 4.06,1.049 1.969,0 3.305,-0.338 4.008,-1.013 0.703,-0.676 1.055,-1.879 1.055,-3.609" /></g><g
             transform="translate(248.9709,126.6015)"
             id="g74"><path
               id="path76"
               style="fill:#254f24;fill-opacity:1;fill-rule:nonzero;stroke:none"
               d="M 0,0 C 0,1.547 -0.43,2.75 -1.289,3.609 -2.148,4.468 -3.362,4.898 -4.931,4.898 -5.726,4.898 -6.424,4.764 -7.025,4.496 -7.627,4.227 -8.127,3.862 -8.524,3.4 -8.922,2.938 -9.217,2.401 -9.41,1.789 -9.604,1.176 -9.7,0.537 -9.7,-0.129 c 0,-1.461 0.429,-2.616 1.289,-3.464 0.859,-0.849 2.052,-1.273 3.577,-1.273 0.816,0 1.525,0.129 2.127,0.387 0.602,0.257 1.101,0.612 1.499,1.063 0.396,0.451 0.697,0.972 0.902,1.563 C -0.103,-1.262 0,-0.645 0,0 m 1.901,-22.945 c 0,0.966 -0.386,1.708 -1.16,2.223 -0.773,0.516 -1.837,0.795 -3.19,0.838 l -5.769,0.161 c -0.558,-0.408 -1.005,-0.8 -1.338,-1.176 -0.333,-0.375 -0.601,-0.736 -0.804,-1.08 -0.205,-0.343 -0.339,-0.676 -0.404,-0.999 -0.064,-0.322 -0.096,-0.655 -0.096,-0.999 0,-1.074 0.542,-1.89 1.627,-2.449 1.085,-0.558 2.616,-0.838 4.592,-0.838 1.225,0 2.256,0.124 3.094,0.371 0.838,0.247 1.515,0.575 2.03,0.983 0.516,0.408 0.881,0.865 1.096,1.369 0.215,0.505 0.322,1.037 0.322,1.596 M 10.409,6.8 C 10.409,5.769 10.291,5.006 10.055,4.512 9.818,4.017 9.528,3.771 9.185,3.771 H 5.801 C 6.273,3.255 6.611,2.669 6.815,2.014 7.02,1.358 7.122,0.677 7.122,-0.032 c 0,-1.676 -0.279,-3.164 -0.838,-4.464 -0.558,-1.3 -1.359,-2.396 -2.4,-3.287 -1.043,-0.891 -2.3,-1.568 -3.772,-2.03 -1.471,-0.462 -3.109,-0.693 -4.914,-0.693 -0.924,0 -1.804,0.113 -2.642,0.339 -0.838,0.225 -1.483,0.488 -1.934,0.789 -0.258,-0.279 -0.489,-0.612 -0.693,-0.999 -0.204,-0.387 -0.306,-0.817 -0.306,-1.289 0,-0.624 0.274,-1.133 0.821,-1.531 0.549,-0.398 1.317,-0.617 2.305,-0.66 l 6.993,-0.258 c 1.633,-0.065 3.088,-0.296 4.366,-0.693 1.279,-0.398 2.354,-0.956 3.223,-1.676 0.871,-0.72 1.536,-1.584 1.998,-2.594 0.462,-1.01 0.693,-2.159 0.693,-3.448 0,-1.418 -0.311,-2.756 -0.934,-4.013 -0.623,-1.256 -1.558,-2.347 -2.804,-3.271 -1.246,-0.923 -2.809,-1.654 -4.689,-2.191 -1.88,-0.537 -4.076,-0.806 -6.59,-0.806 -2.449,0 -4.539,0.194 -6.268,0.58 -1.73,0.387 -3.148,0.924 -4.254,1.612 -1.107,0.688 -1.913,1.51 -2.418,2.465 -0.504,0.956 -0.756,2.004 -0.756,3.142 0,0.709 0.09,1.386 0.274,2.03 0.182,0.645 0.451,1.263 0.805,1.853 0.355,0.591 0.79,1.155 1.305,1.692 0.516,0.537 1.107,1.053 1.773,1.547 -0.924,0.494 -1.639,1.165 -2.143,2.014 -0.506,0.849 -0.758,1.778 -0.758,2.788 0,1.268 0.29,2.422 0.871,3.464 0.58,1.042 1.332,1.982 2.255,2.82 -0.752,0.752 -1.353,1.654 -1.804,2.707 -0.451,1.052 -0.677,2.364 -0.677,3.932 0,1.676 0.295,3.174 0.887,4.495 0.59,1.322 1.412,2.438 2.465,3.352 1.052,0.913 2.309,1.611 3.77,2.095 1.461,0.483 3.072,0.725 4.834,0.725 0.902,0 1.767,-0.054 2.595,-0.161 0.826,-0.108 1.594,-0.258 2.303,-0.451 h 9.121 c 0.365,0 0.66,-0.237 0.886,-0.709 0.225,-0.473 0.338,-1.268 0.338,-2.385" /></g><g
             transform="translate(287.9026,117.9862)"
             id="g78"><path
               id="path80"
               style="fill:#3fab3c;fill-opacity:1;fill-rule:nonzero;stroke:none"
               d="m 0,0 c 0,1.564 -0.123,3.004 -0.37,4.32 -0.245,1.316 -0.661,2.459 -1.247,3.431 -0.586,0.972 -1.366,1.73 -2.339,2.276 -0.973,0.545 -2.197,0.818 -3.674,0.818 -1.312,0 -2.461,-0.243 -3.445,-0.729 C -12.06,9.63 -12.868,8.919 -13.502,7.982 -14.135,7.045 -14.608,5.92 -14.926,4.604 -15.241,3.289 -15.4,1.79 -15.4,0.106 c 0,-1.564 0.129,-3.004 0.386,-4.319 0.258,-1.316 0.674,-2.46 1.249,-3.432 0.574,-0.972 1.354,-1.724 2.338,-2.257 0.985,-0.534 2.203,-0.801 3.656,-0.801 1.336,0 2.497,0.244 3.481,0.729 0.985,0.486 1.794,1.191 2.427,2.116 0.633,0.924 1.101,2.045 1.406,3.36 C -0.152,-3.182 0,-1.684 0,0 m 9.106,0.355 c 0,-2.702 -0.351,-5.167 -1.054,-7.395 -0.703,-2.229 -1.77,-4.148 -3.2,-5.76 -1.43,-1.613 -3.223,-2.857 -5.379,-3.734 -2.157,-0.877 -4.677,-1.316 -7.56,-1.316 -2.789,0 -5.216,0.392 -7.278,1.174 -2.063,0.782 -3.774,1.92 -5.133,3.413 -1.359,1.493 -2.367,3.33 -3.024,5.512 -0.657,2.18 -0.985,4.669 -0.985,7.466 0,2.703 0.358,5.174 1.072,7.414 0.715,2.24 1.789,4.16 3.218,5.76 1.43,1.6 3.218,2.839 5.362,3.716 2.145,0.876 4.659,1.316 7.542,1.316 2.812,0 5.25,-0.386 7.313,-1.156 2.063,-0.77 3.768,-1.902 5.115,-3.396 C 6.463,11.876 7.466,10.039 8.122,7.858 8.778,5.677 9.106,3.176 9.106,0.355" /></g><g
             transform="translate(325.4621,111.1239)"
             id="g82"><path
               id="path84"
               style="fill:#3fab3c;fill-opacity:1;fill-rule:nonzero;stroke:none"
               d="m 0,0 c 0,-1.802 -0.335,-3.391 -1.002,-4.765 -0.669,-1.375 -1.611,-2.525 -2.831,-3.449 -1.219,-0.924 -2.66,-1.618 -4.324,-2.08 -1.664,-0.462 -3.469,-0.693 -5.415,-0.693 -1.172,0 -2.291,0.089 -3.359,0.266 -1.066,0.178 -2.02,0.404 -2.864,0.676 -0.844,0.272 -1.547,0.551 -2.109,0.836 -0.564,0.284 -0.974,0.551 -1.232,0.8 -0.258,0.248 -0.457,0.639 -0.597,1.173 -0.141,0.533 -0.211,1.321 -0.211,2.364 0,0.688 0.023,1.239 0.07,1.654 0.047,0.414 0.117,0.747 0.211,0.995 0.094,0.249 0.211,0.415 0.351,0.498 0.141,0.083 0.317,0.125 0.528,0.125 0.258,0 0.638,-0.149 1.142,-0.445 0.504,-0.296 1.132,-0.622 1.882,-0.977 0.75,-0.356 1.622,-0.688 2.618,-0.996 0.997,-0.308 2.128,-0.462 3.394,-0.462 0.797,0 1.506,0.083 2.128,0.249 0.62,0.165 1.159,0.402 1.617,0.71 0.456,0.308 0.803,0.699 1.037,1.174 0.235,0.474 0.352,1.019 0.352,1.636 0,0.711 -0.218,1.321 -0.652,1.831 -0.433,0.509 -1.007,0.954 -1.721,1.333 -0.716,0.379 -1.525,0.735 -2.427,1.067 -0.902,0.332 -1.828,0.699 -2.776,1.102 -0.952,0.403 -1.877,0.865 -2.78,1.387 -0.902,0.521 -1.711,1.161 -2.425,1.92 -0.715,0.759 -1.29,1.671 -1.723,2.738 -0.434,1.066 -0.651,2.347 -0.651,3.84 0,1.516 0.293,2.91 0.879,4.178 0.586,1.268 1.431,2.352 2.533,3.253 1.101,0.901 2.442,1.601 4.026,2.098 1.581,0.498 3.356,0.747 5.326,0.747 0.984,0 1.939,-0.071 2.864,-0.213 0.926,-0.143 1.765,-0.32 2.515,-0.534 0.75,-0.213 1.383,-0.444 1.898,-0.693 0.516,-0.249 0.885,-0.462 1.109,-0.64 0.222,-0.178 0.381,-0.356 0.474,-0.534 0.094,-0.177 0.165,-0.391 0.211,-0.64 0.047,-0.248 0.088,-0.556 0.122,-0.924 0.037,-0.368 0.054,-0.824 0.054,-1.369 0,-0.64 -0.017,-1.161 -0.054,-1.565 -0.034,-0.403 -0.093,-0.723 -0.174,-0.96 -0.083,-0.236 -0.194,-0.397 -0.334,-0.48 -0.141,-0.083 -0.305,-0.124 -0.493,-0.124 -0.211,0 -0.54,0.124 -0.985,0.373 -0.445,0.249 -1.001,0.516 -1.67,0.8 -0.667,0.285 -1.44,0.552 -2.321,0.801 -0.878,0.249 -1.88,0.373 -3.005,0.373 -0.797,0 -1.488,-0.084 -2.075,-0.249 -0.586,-0.166 -1.067,-0.404 -1.442,-0.711 -0.375,-0.308 -0.656,-0.67 -0.843,-1.085 -0.188,-0.414 -0.282,-0.859 -0.282,-1.333 0,-0.735 0.223,-1.351 0.668,-1.849 0.446,-0.498 1.032,-0.937 1.758,-1.315 0.728,-0.38 1.553,-0.735 2.479,-1.067 0.926,-0.333 1.864,-0.694 2.812,-1.085 0.951,-0.391 1.888,-0.848 2.814,-1.369 0.926,-0.521 1.752,-1.162 2.479,-1.92 0.727,-0.759 1.313,-1.666 1.758,-2.72 C -0.223,2.696 0,1.445 0,0" /></g><g
             transform="translate(354.5637,111.1239)"
             id="g86"><path
               id="path88"
               style="fill:#3fab3c;fill-opacity:1;fill-rule:nonzero;stroke:none"
               d="m 0,0 c 0,-1.802 -0.335,-3.391 -1.002,-4.765 -0.669,-1.375 -1.612,-2.525 -2.831,-3.449 -1.219,-0.924 -2.66,-1.618 -4.324,-2.08 -1.664,-0.462 -3.469,-0.693 -5.415,-0.693 -1.172,0 -2.291,0.089 -3.359,0.266 -1.066,0.178 -2.02,0.404 -2.864,0.676 -0.844,0.272 -1.547,0.551 -2.11,0.836 -0.563,0.284 -0.973,0.551 -1.231,0.8 -0.258,0.248 -0.457,0.639 -0.597,1.173 -0.141,0.533 -0.211,1.321 -0.211,2.364 0,0.688 0.023,1.239 0.07,1.654 0.047,0.414 0.117,0.747 0.211,0.995 0.094,0.249 0.211,0.415 0.351,0.498 0.141,0.083 0.317,0.125 0.528,0.125 0.258,0 0.638,-0.149 1.142,-0.445 0.504,-0.296 1.132,-0.622 1.882,-0.977 0.75,-0.356 1.622,-0.688 2.618,-0.996 0.997,-0.308 2.128,-0.462 3.394,-0.462 0.797,0 1.506,0.083 2.128,0.249 0.62,0.165 1.159,0.402 1.617,0.71 0.456,0.308 0.803,0.699 1.037,1.174 0.235,0.474 0.352,1.019 0.352,1.636 0,0.711 -0.218,1.321 -0.652,1.831 -0.433,0.509 -1.007,0.954 -1.721,1.333 -0.716,0.379 -1.525,0.735 -2.427,1.067 -0.902,0.332 -1.828,0.699 -2.776,1.102 -0.952,0.403 -1.877,0.865 -2.78,1.387 -0.902,0.521 -1.711,1.161 -2.425,1.92 -0.715,0.759 -1.29,1.671 -1.723,2.738 -0.434,1.066 -0.651,2.347 -0.651,3.84 0,1.516 0.293,2.91 0.879,4.178 0.586,1.268 1.431,2.352 2.533,3.253 1.101,0.901 2.442,1.601 4.026,2.098 1.581,0.498 3.356,0.747 5.326,0.747 0.984,0 1.939,-0.071 2.864,-0.213 0.926,-0.143 1.765,-0.32 2.515,-0.534 0.75,-0.213 1.383,-0.444 1.898,-0.693 0.516,-0.249 0.885,-0.462 1.109,-0.64 0.222,-0.178 0.38,-0.356 0.473,-0.534 0.095,-0.177 0.166,-0.391 0.212,-0.64 0.047,-0.248 0.088,-0.556 0.122,-0.924 0.037,-0.368 0.054,-0.824 0.054,-1.369 0,-0.64 -0.017,-1.161 -0.054,-1.565 -0.034,-0.403 -0.093,-0.723 -0.174,-0.96 -0.083,-0.236 -0.195,-0.397 -0.335,-0.48 -0.141,-0.083 -0.305,-0.124 -0.492,-0.124 -0.211,0 -0.54,0.124 -0.985,0.373 -0.445,0.249 -1.001,0.516 -1.67,0.8 -0.667,0.285 -1.44,0.552 -2.321,0.801 -0.878,0.249 -1.88,0.373 -3.005,0.373 -0.797,0 -1.489,-0.084 -2.075,-0.249 -0.586,-0.166 -1.067,-0.404 -1.442,-0.711 -0.375,-0.308 -0.656,-0.67 -0.843,-1.085 -0.188,-0.414 -0.282,-0.859 -0.282,-1.333 0,-0.735 0.223,-1.351 0.668,-1.849 0.446,-0.498 1.032,-0.937 1.758,-1.315 0.727,-0.38 1.553,-0.735 2.479,-1.067 0.926,-0.333 1.864,-0.694 2.812,-1.085 0.951,-0.391 1.888,-0.848 2.814,-1.369 0.926,-0.521 1.752,-1.162 2.478,-1.92 0.728,-0.759 1.314,-1.666 1.759,-2.72 C -0.223,2.696 0,1.445 0,0" /></g></g></g></g></g></svg>