<?xml version="1.0" encoding="UTF-8" standalone="no"?>
<svg
   xmlns:dc="http://purl.org/dc/elements/1.1/"
   xmlns:cc="http://creativecommons.org/ns#"
   xmlns:rdf="http://www.w3.org/1999/02/22-rdf-syntax-ns#"
   xmlns:svg="http://www.w3.org/2000/svg"
   xmlns="http://www.w3.org/2000/svg"
   xmlns:sodipodi="http://sodipodi.sourceforge.net/DTD/sodipodi-0.dtd"
   xmlns:inkscape="http://www.inkscape.org/namespaces/inkscape"
   inkscape:version="1.0 (4035a4fb49, 2020-05-01)"
   sodipodi:docname="prometheus.svg"
   xml:space="preserve"
   enable-background="new 0 0 115.333 114"
   viewBox="0 0 100 100"
   height="100"
   width="100"
   y="0px"
   x="0px"
   id="Layer_1"
   version="1.1"><metadata
     id="metadata4495"><rdf:RDF><cc:Work
         rdf:about=""><dc:format>image/svg+xml</dc:format><dc:type
           rdf:resource="http://purl.org/dc/dcmitype/StillImage" /><dc:title></dc:title></cc:Work></rdf:RDF></metadata><defs
     id="defs4493" /><sodipodi:namedview
     inkscape:document-rotation="0"
     inkscape:current-layer="Layer_1"
     inkscape:window-maximized="0"
     inkscape:window-y="203"
     inkscape:window-x="73"
     inkscape:cy="38.761174"
     inkscape:cx="31.415326"
     inkscape:zoom="5.6568543"
     showgrid="false"
     id="namedview4491"
     inkscape:window-height="896"
     inkscape:window-width="1506"
     inkscape:pageshadow="2"
     inkscape:pageopacity="0"
     guidetolerance="10"
     gridtolerance="10"
     objecttolerance="10"
     borderopacity="1"
     bordercolor="#666666"
     pagecolor="#ffffff" /><g
     transform="matrix(0.88236,0,0,0.88236,0,-0.58854)"
     id="Layer_2" /><path
     d="M 50.00069,0 C 22.38723,0 0,22.38459 0,49.99892 c 0,27.61346 22.38723,49.99981 50.00069,49.99981 27.61346,0 49.99981,-22.38635 49.99981,-49.99981 C 100.0005,22.38459 77.61327,0 50.00069,0 Z m 0,93.57868 c -7.85653,0 -14.22629,-5.24827 -14.22629,-11.72038 h 28.45258 c 0,6.47123 -6.36976,11.72038 -14.22629,11.72038 z M 73.49794,77.9768 H 26.5008 V 69.45496 H 73.49882 V 77.9768 Z M 73.32941,65.06875 H 26.63492 c -0.1553,-0.17912 -0.31412,-0.35559 -0.46413,-0.53736 -4.81062,-5.84122 -5.94357,-8.89066 -7.04387,-11.99833 -0.0185,-0.10235 5.83328,1.1956 9.98302,2.12914 0,0 2.13531,0.49412 5.2571,1.06324 -2.99738,-3.51356 -4.7771,-7.98006 -4.7771,-12.54539 0,-10.02273 7.68712,-18.78104 4.91386,-25.86021 2.69914,0.21971 5.58622,5.69652 5.78123,14.25982 2.86943,-3.96533 4.07032,-11.20685 4.07032,-15.64689 0,-4.5971 3.02915,-9.93714 6.05917,-10.11979 -2.7009,4.45151 0.69971,8.26772 3.72267,17.73456 1.13384,3.55591 0.98913,9.54007 1.86443,13.3351 0.2903,-7.88212 1.6456,-19.3828 6.64594,-23.35342 -2.2059,5.00034 0.32647,11.25715 2.05854,14.26511 2.79444,4.85299 4.48857,8.52978 4.48857,15.48366 0,4.66239 -1.72149,9.05213 -4.62533,12.48363 3.30179,-0.61942 5.58181,-1.17795 5.58181,-1.17795 l 10.72244,-2.09208 c 8.8e-4,-8.8e-4 -1.55737,6.40682 -7.54418,12.57716 z"
     id="path4486"
     inkscape:connector-curvature="0"
     style="fill:#e6522c;fill-opacity:1;stroke-width:0.88236" /></svg>
